/* XPM */
static char * bmfolder[] = {
"16 16 9 1",
" 	c none",
".	c #FFFFFFFFFFFF",
"X	c #222222222222",
"o	c #42429A9AA7A7",
"O	c #000080808080",
"+	c #CFCFC8C86060",
"@	c #FFFFF8F89090",
"#	c #CCCCCCCCCCCC",
"$	c #94948F8F4444",
"           .X   ",
"          .oX   ",
"         .oOX...",
"        .oOOoooX",
"  ++++@.oOOOOOX ",
" +.##@.oOOOOOX  ",
"+.###########@  ",
"+.+++++++++++$  ",
"+.+++++++++++$  ",
"+.+++++++++++$  ",
"+.+++++++++++$  ",
"+.+++++++++++$  ",
"+.+++++++++++$  ",
"+++++++++++++$  ",
"$$$$$$$$$$$$$$  ",
"                "};
