/* XPM */
static char * bmfolder_open[] = {
"16 16 8 1",
" 	c none",
".	c #FFFFFFFFFFFF",
"X	c #222222222222",
"o	c #42429A9AA7A7",
"O	c #000080808080",
"+	c #94948F8F4444",
"@	c #CFCFC8C86060",
"#	c #282828282828",
"           .X   ",
"          .oX   ",
"         .oOX...",
"        .oOOoooX",
"  ++++ .oOOOOOX ",
" +...+.oOOOOOX  ",
" +.@+.oOOOOO#@+ ",
" +.+.oOOOOO#@@+ ",
" +..oOOOOO#@@@+ ",
"++++++++++#+@@+ ",
"+.........+##@+ ",
" +@@@@@@@@@+##+ ",
" +@@@@@@@@@@+#+ ",
"  +@@@@@@@@@@++ ",
"  +++++++++++++ ",
"                "};
