/* XPM */
static char *bookm[] = {
/* width height num_colors chars_per_pixel */
"    16    16        6            1",
/* colors */
". c none",
"# c #008080",
"a c #000000",
"b c #ff0000",
"c c #ffff00",
"d c #7f7f7f",
/* pixels */
"................",
"....#...........",
"....###.........",
"..a####.........",
"...a####.bb.....",
"....a##bbbbb....",
".....bbbbbbbb...",
"...ccbbbbbbbbb..",
"...accbbbbbbbbb.",
"...baccbbbbbbbbb",
"...bbaccbbbbbbaa",
"....bbaccbbbaa.d",
".....bbaccaa..dd",
"......bbaa..dd..",
".......ba.dd....",
"........ad......"
};
