/* XPM */
static char * disconnect_xpm[] = {
"32 32 139 2",
"  	c None",
". 	c #222222",
"+ 	c #3F3F3F",
"@ 	c #181818",
"# 	c #777777",
"$ 	c #1F1F1F",
"% 	c #312525",
"& 	c #463535",
"* 	c #342727",
"= 	c #281E1E",
"- 	c #3A3232",
"; 	c #625D5D",
"> 	c #121212",
", 	c #542D2D",
"' 	c #994848",
") 	c #B74C4C",
"! 	c #9E3939",
"~ 	c #8D2C2C",
"{ 	c #772C2C",
"] 	c #503535",
"^ 	c #2C2C2C",
"/ 	c #533131",
"( 	c #9B4040",
"_ 	c #E44646",
": 	c #FD3F3F",
"< 	c #E72F2F",
"[ 	c #D92424",
"} 	c #B31B1B",
"| 	c #631010",
"1 	c #332222",
"2 	c #BC5454",
"3 	c #EB3B3B",
"4 	c #FE0C0C",
"5 	c #FE0000",
"6 	c #F00000",
"7 	c #C10000",
"8 	c #1B0000",
"9 	c #686868",
"0 	c #F27676",
"a 	c #FB1818",
"b 	c #FE0101",
"c 	c #FA0000",
"d 	c #D70000",
"e 	c #490A0A",
"f 	c #4D3939",
"g 	c #5B5757",
"h 	c #1E1E1E",
"i 	c #2D2222",
"j 	c #A97272",
"k 	c #FC1A1A",
"l 	c #FD0505",
"m 	c #FD0000",
"n 	c #F70000",
"o 	c #C21E1E",
"p 	c #7F2E2E",
"q 	c #382D2D",
"r 	c #000000",
"s 	c #352828",
"t 	c #C48484",
"u 	c #FE0404",
"v 	c #D31313",
"w 	c #7D1818",
"x 	c #251313",
"y 	c #CA0000",
"z 	c #710000",
"A 	c #1C0000",
"B 	c #D50000",
"C 	c #800000",
"D 	c #280000",
"E 	c #F80000",
"F 	c #B90000",
"G 	c #690000",
"H 	c #1D0000",
"I 	c #C70000",
"J 	c #660000",
"K 	c #300000",
"L 	c #090000",
"M 	c #DE0000",
"N 	c #820000",
"O 	c #2B0000",
"P 	c #0D0000",
"Q 	c #080805",
"R 	c #41342D",
"S 	c #C88980",
"T 	c #FC0404",
"U 	c #FC0000",
"V 	c #9F0000",
"W 	c #210000",
"X 	c #050000",
"Y 	c #585838",
"Z 	c #AC9D5E",
"` 	c #F2AE59",
" .	c #EA0401",
"..	c #EA0000",
"+.	c #C20000",
"@.	c #6E6E41",
"#.	c #B9B942",
"$.	c #D9D630",
"%.	c #B9A90E",
"&.	c #690400",
"*.	c #680000",
"=.	c #4B0000",
"-.	c #494930",
";.	c #B6B643",
">.	c #CDCD2C",
",.	c #BDBD14",
"'.	c #7A7700",
").	c #290200",
"!.	c #1A0000",
"~.	c #A4A454",
"{.	c #DFDF2D",
"].	c #BBBB10",
"^.	c #848400",
"/.	c #383800",
"(.	c #9D9D59",
"_.	c #EDED2B",
":.	c #B5B504",
"<.	c #717100",
"[.	c #353500",
"}.	c #040400",
"|.	c #54542E",
"1.	c #A1A138",
"2.	c #E7E72B",
"3.	c #AFAF01",
"4.	c #4E4E00",
"5.	c #1C1C00",
"6.	c #010100",
"7.	c #39390D",
"8.	c #73730F",
"9.	c #A6A60B",
"0.	c #646400",
"a.	c #1A1A00",
"b.	c #070700",
"c.	c #1D1D00",
"d.	c #414100",
"e.	c #616100",
"f.	c #2F2F00",
"g.	c #131300",
"h.	c #030300",
"                                                                ",
"                                                                ",
"                                  . + .                         ",
"                                @ # $                           ",
"                      % & * = - ; >                             ",
"                    , ' ) ! ~ { ]           ^                   ",
"                  / ( _ : < [ } |           +                   ",
"                1 2 3 4 5 5 5 6 7 8       9 .                   ",
"              1 0 a b 5 5 5 5 5 c d e f g h                     ",
"            i j k l 5 5 5 5 5 5 m n o p q                       ",
"          r s t u 5 5 5 5 5 5 5 5 5 v w x                       ",
"          r s t u 5 5 5 5 5 5 5 5 5 y z A                       ",
"          r s t u 5 5 5 5 5 5 5 5 5 B C D                       ",
"          r s t u 5 5 5 5 5 5 5 m E F G H                       ",
"          r s t u 5 5 5 5 5 5 5 E I J K L                       ",
"          r s t u 5 5 5 5 5 5 n M N O P r                       ",
"          Q R S T U U U U U E M V W X                           ",
"          Y Z `  ...........+.N W r                             ",
"        @.#.$.%.&.*.*.*.*.*.=.O X                               ",
"      -.;.>.,.'.).D D D D D !.P                                 ",
"      ~.{.].^./.r r r r r r r r                                 ",
"    (._.:.<.[.}.                                                ",
"|.1.2.3.4.5.6.                                                  ",
"7.8.9.0.a.b.                                                    ",
"c.d.e.f.}.                                                      ",
"    g.h.                                                        ",
"                                                                ",
"                                                                ",
"                                                                ",
"                                                                ",
"                                                                ",
"                                                                "};
