/* XPM */
static char * core_ok[] = {
"20 20 44 1",
" 	c None",
".	c None",
"+	c #0C0E0C",
"@	c #14120C",
"#	c #040204",
"$	c #B4C6AC",
"%	c #BCC2BC",
"&	c #ACB6AC",
"*	c #A4AE94",
"=	c #9CA694",
"-	c #D4E6C4",
";	c #9CAA94",
">	c #94A28C",
",	c #7C867C",
"'	c #9CA68C",
")	c #949E8C",
"!	c #7C8674",
"~	c #7C8A74",
"{	c #848684",
"]	c #646A5C",
"^	c #848E7C",
"/	c #747A6C",
"(	c #BCC6BC",
"_	c #ACBA9C",
":	c #7C8274",
"<	c #545E54",
"[	c #5C5E5C",
"}	c #64765C",
"|	c #B4C2A4",
"1	c #94A68C",
"2	c #444A3C",
"3	c #8C9684",
"4	c #5C6254",
"5	c #44463C",
"6	c #4C564C",
"7	c #949E84",
"8	c #545E4C",
"9	c #3C423C",
"0	c #4C5244",
"a	c #545A4C",
"b	c #3C3E34",
"c	c #8C9A84",
"d	c #6C7264",
"e	c #54564C",
"....................",
"....................",
"............+@@@@@@.",
"...........#$%$&*==@",
"...........@$-;>>>,@",
"...........@$$'>>>,@",
"...........@$'))>'!@",
".......@...@$>;>>>~@",
"......@{@..@$>>>>>{+",
".....@$]@@@@$)'>^]/@",
"....@(_:<<<[]]}:>|<@",
"...@$>>>>>=>1>'>/2@.",
"..@('>>>>>>>')342+..",
".@$;1>>>'>>>>^45+...",
"..@67>>>)>>>!89+....",
"...@07)'>>7!ab@.....",
"....@0)c!!d6b+......",
".....+e6@+@+@.......",
"......@b+...........",
".......+............"};
