/* XPM */
static char * gnome_cancel[] = {
"20 20 8 1",
" 	c none",
".	c #000000",
"X	c #C46D74",
"o	c #9F3C44",
"O	c #B5444E",
"+	c #BD5A62",
"@	c #7B2D34",
"#	c #8C343C",
"                    ",
"                    ",
"                    ",
"       ..      .    ",
"      .Xo.    .O.   ",
"      .OO.   .+O.   ",
"       .Oo. .+O@.   ",
"       .OO..+O#.    ",
"        .OOOOo.     ",
"        .OOOO.      ",
"       .+OOO.       ",
"      .+OOOO.       ",
"     .+O#..O#.      ",
"    .XO#. .oO.      ",
"    .O#.   .Oo.     ",
"     ..    .oO.     ",
"            ..      ",
"                    ",
"                    ",
"                    "};
