/* XPM */
static char * logintopmid_xpm[] = {
"200 60 31 1",
" 	c #FFFFFFFFFFFF",
".	c #DADAE6E6F4F4",
"X	c #E8E8F5F5EFEF",
"o	c #CACACECEE4E4",
"O	c #D2D2DADAECEC",
"+	c #91918686A6A6",
"@	c #040404040505",
"#	c #AFAFBBBBDBDB",
"$	c #2A2A28282424",
"%	c #A6A69E9ECCCC",
"&	c #6666A2A2ECEC",
"*	c #141442422222",
"=	c #000000000000",
"-	c #24242B2B7777",
";	c #9A9A9292B4B4",
":	c #5D5D50507979",
">	c #7777B5B5FCFC",
",	c #56568A8AECEC",
"<	c #5A5A9292E4E4",
"1	c #02024242CCCC",
"2	c #121242421C1C",
"3	c #616161616161",
"4	c #7A7A72727D7D",
"5	c #1C1C4D4D7B7B",
"6	c #262642428C8C",
"7	c #4A4A7A7AECEC",
"8	c #31315C5CCFCF",
"9	c #8A8A8A8A8A8A",
"0	c #32322E2E2C2C",
"q	c #CCCCCCCCCCCC",
"w	c #1A1A56562C2C",
"                                                                                                                                                                                                        ",
"                                                                                                                                                                                                        ",
"                                                                                                                                                                                                        ",
"                                                                                                                                                                                                        ",
"                                                                                                                                                                                                        ",
"                                                                                                                                                                                                        ",
"                                         .                                                                                                                                                              ",
"                                         .                                                                                                                                                              ",
"                                        ..                                                                                                                                                              ",
"                                        ...                                                                       .                                                                                     ",
"                                       .X..         .                                   .                       .oo                                                                                     ",
"                                       ... . .      .                                   .          .            .O                .                                                                     ",
"                                      .....  .....  ..           .                  .o...        ...           ..O                .                                                                     ",
"                              .        O.+@  .XX...OO..        .O.                 .Oo##oo.OO .. ..            .O                ..                                                                     ",
"                              .        .O$@@@....o.o#...      .OO                  .##%&#OO.OooOOOO            .O   .            ...                                                                    ",
"                          .o...      ..o$$@$@@@.o###OOO..    OOo                    O##%O..O%##O.o            Oo    oo .        .X..         .                                                          ",
"                         .Oo##oo...  ..O@***=@@@$$ooOO%XX....OOoO                   .##%oO.#####OoO           O# .o###..        ... . .      .                                                          ",
"                         .##%&#OO.....%O@=====*-*@@@;@%XXX.Oo%##o                  .#o##O@$@:@@#o.oo         o%%O...O#o.       .....  .....  ..           .                                            >",
"                          O##%O..%.O:.-@@--*---==***@@@XXXX.o&##O                  .#Oo%@@@@@@@@@X.o        .Oo.XXX..#oO        O.+@  .XX...OO..        .O.                                            ,",
"                          .##%oO.@@@:@*-*-**-----===**@-.Xo##&##.O                o&ooO#@@----@@@<Xo       ooOOOXXX.#o#OOO      .O$@@@....o.o#...      .OO                                             1",
"                         .#o##O@$-$2@$-------**---*--*-@.XOo%##O..                #%Oo----=*=---@$#o..    O##o#o.XX.###..o    ..o$$@$@@@.o###OOO..    OOo             .                                1",
"                         .#Oo%@@@---*-----333----*-*-**-.OOo%#oO...             o%%#o%-=-**---=-@@@.O... #O#%##oO..#&###....  ..O@***=@@@$$ooOO%XX....OOoO           ..                                1",
"                        o&ooO==@--33333333333--------*-=$.o#442O..OO.          .#&#$@----=-----=--=$oOOoO#%%5#6.OO.#&&o#7O.....%O@=====*-*@@@;@%XXX.Oo%##o           .                                 ,",
"                        #%Oo===***333333333333333333-**---O@@@@oX..O.        .o&&%8$--=---333----==--.Oooo##@@@@@6o%%&@6@6%.O:.-@@3--=====***@@@XXXX.o&##O          ..                                 >",
"                      o%%#o==*=***3333333333333333333---*----@$@-..XO     .  O#%@@-=-----333333-----=--#@---@@-@@6+@@@@-=@@@@:@@@@333---**===**@-.Xo##&##.O         ..                                  ",
"                     .#&#====***33333333333333333333333-***===-@@....O ... .oo#8@-==---333333333--*--=-=-----=--===-@---33333333=-33333--3=*=**-@.XOo%##O..         .#                                  ",
"                   .o&&%====***-33333333333333333333333333--*--=-$%O..OO..OO.O@------3333333333333---=--===-=---------=333333333333333333333-=-*-.OOo%#oO...        ##       .                          ",
"                .  O#%===******333333333333333333333333333333---=@@OO.O.XX.Oo4@-==--3333333333333333-33------------=---333333333333333333333----=$.o#442O..OO.      &#.      .                          ",
"               . .oo#==******33333333333333333333999993333333333333@@@O.X.$0---=---3333333333333333-33333----3-33-3---33339993333333333333333------O@@@@oX..O.     .&&.....  ..           .             ",
"              .XOO.O==*=***--3333333333399999999999999999993333333333----@---==--3333333333333333333333333333333333333333999999999999333333333--------@$@-..XO     .##.XX...OO..        .O.             ",
"              ...Oo==*****33333339999999999999999999999999999933333333333333333333333333333333333999999333-33-3333333333999999999999999993333333----===-@@....O ....@@....o.o#...      .OO              ",
"             ...$===*==*-3333339999999999999999999999999999999999933333333333333333333999999999999999999933333333-33399999qqq9999999999999993333333-----=-$%O..OO..#$@@@.o###OOO..    OOo               ",
"              O.==*=***33333339999999999999qqqqqqqqqqqqq999999999999999999333999999999999999999999999999999333333333999999qqqqqqqq99999999999933333333---=@@OO.O.X#=*=@@@$$ooOO%XX....OOoO              ",
"              .O=**=***3333333999999qqqqqqqqqqqqqqqqqqqqqqqq99999999999999999999999999999999999999999999999999999999999999qqqqqqqqqqqq999999999333333333333*===O###$===*-*@@@;@%XXX.Oo%##o              ",
".  .        ..o==****3333333399999qqqqqqqqqqqqqqqqqqqqqqqqqqqqqq9999999999999999999999999qqqqqqqqqqqqq999999999999999999qqqqqqqqqqqqqqqqq9999999999933333333**=======*====***@@@XXXX.o&##O              ",
"ooO.        ..O@**=--333333399999qqqqqqqqqqqqqqqqqqqqqqqqqqqqqqqqqqqqqqq9999999qqqqqqqqqqqqqqqqqqqqqqqqq999999999999999qqqqqqqqqqqqqqqqqqqqq999999999993333333********--*******@-.Xo##&##.O             ",
"###o.    ....%O@*--3333399999999qqqqqqqqqqqqqqqqqqqqqqqqqqqqqqqqqqqqqqqqqqqqqqqqqqqqqqqqqqqqqqqqqqqqqqqqqqqqqqqqqqqqqqqqqqqqqqqqqqqqqqqqqqqqq99999999999999333333333333--3=****-@.XOo%##O..             ",
".O#oOOO.#%O:.-@**-333399999999qqqqqqqqqqqqqqqqqqqqqqqqqqqqqqqqqqqqqqqqqqqqqqqqqqqqqqqqqqqqqqqqqqqqqqqqqqqqqqqqqqqqqqqqqqqqqqqqqqqqqqqqqqqqqqqqqqq999999999999333333333333333-***-.OOo%#oO...            ",
"X.#o#..o#.@:@@*@*-33399999999qqqqqqqqqqqqqqqqqqqqqqqqqqqqqqqqqqqqqqqqqqqqqqqqqqqqqqqqqqqqqqqqqqqqqqqqqqqqqqqqqqqqqqqqqqqqqqqqqqqqqqqqqqqqqqqqqqqqqqqq99999999933333339933333----=$.o#442O..OO.       .  ",
"X.####..Oo2@***-*3333999999qqqqqqqqqqqqqqqqqqqqqqqqqqqqqqqqqqqqqqqqqqqqqqqqqqqqqqqqqqqqqqqqqqqqqqqqqqqqqqqqqqqqqqqqqqqqqqqqqqqqqqqqqqqqqqqqqqqqqqqqqqqqqq99999993333399933333------O@@@@oX..O.       .Oo",
"X.#&###76--w*--3333399999qqqqqqqqqqqqqqqqqqqqqqqqqqqqqqqqqqqqqqqqqqqqqqqqqqqqqqqqqqqqqqqqqqqqqqqqqqqqqqqqqqqqqqqqqqqqqqqqqqqqqqqqqqqqqqqqqqqqqqqqqqqqqqqqqqqqq9999999999933333--------@$@-..XO .    .o##",
"X.#&&o6@@@**--3333999999qqqqqqqqqqqqqqqqqqqqqqqqqqqqqqqqqqqqqqqqqqqqqqqqqqqqqqqqqqqqqqqqqqqqqqqqqqqqqqqqqqqqqqqqqqqqqqqqqqqqqqqqqqqqqqqqqqqqqqqqqqqqqqqqqqqqqqq99999999999333333----===-@@....O%#.OOOo#O",
"..#%&@@-=---333333999999qqqqqqqqqqqqqqqqqqqqqqqqqqqqqqqqqqqqqqqqqqqqqqqqqqqqqqqqqqqqqqqqqqqqqqqqqqqqqqqqqqqqqqqqqqqqqqqqqqqqqqqqqqqqqqqqqqqqqqqqqqqqqqqqqqqqqqqq9999999999993333333-----=-$%O...#o..#o#.",
"O.o%@@----*333333999999qqqqqqqqqqqqqqqqqqqqqqqqqqqqqqqqqqqqqqqqqqqqqqqqqqqqqqqqqqqqqqqqqqqqqqqqqqqqqqqqqqqqqqqqqqqqqqqqqqqqqqqqqqqqqqqqqqqqqqqqqqqqqqqqqqqqqqqqqqq999qqqq9999933333333---=@@OO.oO..####.",
"@6+@@-=----3333999999qqqqqqqqqqqqqqqqqqqqqqqqqqqqqqqqqqqqqqqqqqqqqqqqqqqqqqqqqqqqqqqqqqqqqqqqqqqqqqqqqqqqqqqqqqqqqqqqqqqqqqqqqqqqqqqqqqqqqqqqqqqqqqqqqqqqqqqqqqqqqqqqqqqqqq9999333333333----@@@-67###&#.",
"@-=-------33339999999qqqqqqqqqqqqqqqqqqqqqqqqqqqqqqqqqqqqqqqqqqqqqqqqqqqqqqqqqqqqqqqqqqqqqqqqqqqqqqqqqqqqqqqqqqqqqqqqqqqqqqqqqqqqqqqqqqqqqqqqqqqqqqqqqqqqqqqqqqqqqqqqqqqqqqqq9999339333333--=--@@@6o&&#.",
"-=--=---333339999999qqqqqqqqqqqqqqqqqqqqqqqqqqqqqqqqqqqqqqqqqqqqqqqqqqqqqqqqqqqqqqqqqqqqqqqqqqqqqqqqqqqqqqqqqqqqqqqqqqqqqqqqqqqqqqqqqqqqqqqqqqqqqqqqqqqqqqqqqqqqqqqqqqqqqqqqq9999999999333----=-=-@@&%#.",
"--------3333999999qqqqqqqqqqqqqqqqqqqqqqqqqqqqqqqqqqqqqqqqqqqqqqqqqqqqqqqqqqqqqqqqqqqqqqqqqqqqqqqqqqqqqqqqqqqqqqqqqqqqqqqqqqqqqqqqqqqqqqqqqqqqqqqqqqqqqqqqqqqqqqqqqqqqqqqqqqq99999999999933--------@@%o.",
"----3333339999999qqqqqqqqqqqqqqqqqqqqqqqqqqqqqqqqqqqqqqqqqqqqqqqqqqqqqqqqqqqqqqqqqqqqqqqqqqqqqqqqqqqqqqqqqqqqqqqqqqqqqqqqqqqqqqqqqqqqqqqqqqqqqqqqqqqqqqqqqqqqqqqqqqqqqqqqqqqqqqqq999qq99993333----=-@@+6",
"-333333=3999999qqqqqqqqqqqqqqqqqqqqqqqqqqqqqqqqqqqqqqqqqqqqqqqqqqqqqqqqqqqqqqqqqqqqqqqqqqqqqqqqqqqqqqqqqqqqqqqqqqqqqqqqqqqqqqqqqqqqqqqqqqqqqqqqqqqqqqqqqqqqqqqqqqqqqqqqqqqqqqqqqqqqqqqq99999933--=----=-",
"3333333999999qqqqqqqqqqqqqqqqqqqqqqqqqqqqqqqqqqqqqqqqqqqqqqqqqqqqqqqqqqqqqqqqqqqqqqqqqqqqqqqqqqqqqqqqqqqqqqqqqqqqqqqqqqqqqqqqqqqqqqqqqqqqqqqqqqqqqqqqqqqqqqqqqqqqqqqqqqqqqqqqqqqqqqqqqqqq9999933----=--=",
"33339999999qqqqqqqqqqqqqqqqqqqqqqqqqqqqqqqqqqqqqqqqqqqqqqqqqqqqqqqqqqqqqqqqqqqqqqqqqqqqqqqqqqqqqqqqqqqqqqqqqqqqqqqqqqqqqqqqqqqqqqqqqqqqqqqqqqqqqqqqqqqqqqqqqqqqqqqqqqqqqqqqqqqqqqqqqqqqqq99999333-------",
"9999999999qqqqqqqqqqqqqqqqqqqqqqqqqqqqqqqqqqqqqqqqqqqqqqqqqqqqqqqqqqqqqqqqqqqqqqqqqqqqqqqqqqqqqqqqqqqqqqqqqqqqqqqqqqqqqqqqqqqqqqqqqqqqqqqqqqqqqqqqqqqqqqqqqqqqqqqqqqqqqqqqqqqqqqqqqqqqqqqq99999333333---",
"9999999qqqqqqqqqqqqqqqqqqqqqqqqqqqqqqqqqqqqqqqqqqqqqqqqqqqqqqqqqqqqqqqqqqqqqqqqqqqqqqqqqqqqqqqqqqqqqqqqqqqqqqqqqqqqqqqqqqqqqqqqqqqqqqqqqqqqqqqqqqqqqqqqqqqqqqqqqqqqqqqqqqqqqqqqqqqqqqqqqqq99999933333333",
"999999qqqqqqqqqqqqqqqqqqqqqqqqqqqqqqqqqqqqqqqqqqqqqqqqqqqqqqqqqqqqqqqqqqqqqqqqqqqqqqqqqqqqqqqqqqqqqqqqqqqqqqqqqqqqqqqqqqqqqqqqqqqqqqqqqqqqqqqqqqqqqqqqqqqqqqqqqqqqqqqqqqqqqqqqqqqqqqqqqqqqqqqq9999333333",
"qqqqqqqqqqqqqqqqqqqqqqqqqqqqqqqqqqqqqqqqqqqqqqqqqqqqqqqqqqqqqqqqqqqqqqqqqqqqqqqqqqqqqqqqqqqqqqqqqqqqqqqqqqqqqqqqqqqqqqqqqqqqqqqqqqqqqqqqqqqqqqqqqqqqqqqqqqqqqqqqqqqqqqqqqqqqqqqqqqqqqqqqqqqqqqq999999333",
"qqqqqqqqqqqqqqqqqqqqqqqqqqqqqqqqqqqqqqqqqqqqqqqqqqqqqqqqqqqqqqqqqqqqqqqqqqqqqqqqqqqqqqqqqqqqqqqqqqqqqqqqqqqqqqqqqqqqqqqqqqqqqqqqqqqqqqqqqqqqqqqqqqqqqqqqqqqqqqqqqqqqqqqqqqqqqqqqqqqqqqqqqqqqqqqqq9999999",
"qqqqqqqqqqqqqqqqqqqqqqqqqqqqqqqqqqqqqqqqqqqqqqqqqqqqqqqqqqqqqqqqqqqqqqqqqqqqqqqqqqqqqqqqqqqqqqqqqqqqqqqqqqqqqqqqqqqqqqqqqqqqqqqqqqqqqqqqqqqqqqqqqqqqqqqqqqqqqqqqqqqqqqqqqqqqqqqqqqqqqqqqqqqqqqqqqq999999",
"qqqqqqqqqqqqqqqqqqqqqqqqqqqqqqqqqqqqqqqqqqqqqqqqqqqqqqqqqqqqqqqqqqqqqqqqqqqqqqqqqqqqqqqqqqqqqqqqqqqqqqqqqqqqqqqqqqqqqqqqqqqqqqqqqqqqqqqqqqqqqqqqqqqqqqqqqqqqqqqqqqqqqqqqqqqqqqqqqqqqqqqqqqqqqqqqqqq99999",
"qqqqqqqqqqqqqqqqqqqqqqqqqqqqqqqqqqqqqqqqqqqqqqqqqqqqqqqqqqqqqqqqqqqqqqqqqqqqqqqqqqqqqqqqqqqqqqqqqqqqqqqqqqqqqqqqqqqqqqqqqqqqqqqqqqqqqqqqqqqqqqqqqqqqqqqqqqqqqqqqqqqqqqqqqqqqqqqqqqqqqqqqqqqqqqqqqqqq9999"};
