/* XPM */
static char *logintopleft[] = {
/* width height num_colors chars_per_pixel */
"    80    80      253            2",
/* colors */
".. c #040204",
".# c #a4820c",
".a c #e4c60c",
".b c #14421c",
".c c #b4820c",
".d c #b49e74",
".e c #6c4204",
".f c #c4a20c",
".g c #846204",
".h c #1c222c",
".i c #c4c29c",
".j c #cc8a0c",
".k c #9c6204",
".l c #748294",
".m c #24428c",
".n c #443604",
".o c #dca20c",
".p c #dce6f4",
".q c #acaaac",
".r c #ac8e4c",
".s c #848284",
".t c #54420c",
".u c #6c6254",
".v c #242a74",
".w c #3c3204",
".x c #9c9a9c",
".y c #645634",
".z c #e4b20c",
".A c #f4d214",
".B c #b48e0c",
".C c #f4deac",
".D c #141214",
".E c #dcd2bc",
".F c #747274",
".G c #b4ae94",
".H c #6c521c",
".I c #cc960c",
".J c #9c760c",
".K c #342204",
".L c #acb6c4",
".M c #e4ba14",
".N c #ecc63c",
".O c #bc8204",
".P c #8c8e8c",
".Q c #444244",
".R c #ecf6ec",
".S c #241604",
".T c #ecca0c",
".U c #bca26c",
".V c #c4c2c4",
".W c #dc9e0c",
".X c #d4ae0c",
".Y c #7c622c",
".Z c #ac9264",
".0 c #6c6a6c",
".1 c #2c323c",
".2 c #a4a6a4",
".3 c #545654",
".4 c #8c724c",
".5 c #ccba74",
".6 c #6c5a3c",
".7 c #cc9e0c",
".8 c #ac7204",
".9 c #acbadc",
"#. c #2c2a24",
"## c #5c527c",
"#a c #543604",
"#b c #1c1a0c",
"#c c #d4daec",
"#d c #7c7a7c",
"#e c #bcb6b4",
"#f c #f4ba0c",
"#g c #949294",
"#h c #cccac4",
"#i c #3c3a3c",
"#j c #5c5e5c",
"#k c #0c0a0c",
"#l c #948a74",
"#m c #b48a34",
"#n c #aca694",
"#o c #6c4a04",
"#p c #d4a60c",
"#q c #9c6a0c",
"#r c #64a2ec",
"#s c #dcae1c",
"#t c #eceaec",
"#u c #5c462c",
"#v c #f4b60c",
"#w c #f4d234",
"#x c #bc8e34",
"#y c #bcb6a4",
"#z c #845204",
"#A c #bc8a0c",
"#B c #4c4e4c",
"#C c #ecca24",
"#D c #3c424c",
"#E c #ac8a0c",
"#F c #cc920c",
"#G c #548aec",
"#H c #acb2bc",
"#I c #b49644",
"#J c #9486a4",
"#K c #644204",
"#L c #94a2bc",
"#M c #ecb20c",
"#N c #7c727c",
"#O c #bcae94",
"#P c #d4960c",
"#Q c #342a04",
"#R c #ecba0c",
"#S c #fcfefc",
"#T c #7c6e54",
"#U c #3c362c",
"#V c #5c5a5c",
"#W c #b47a04",
"#X c #543e04",
"#Y c #cccee4",
"#Z c #bca674",
"#0 c #7c4e04",
"#1 c #0c0604",
"#2 c #f4c20c",
"#3 c #1c562c",
"#4 c #ccaa0c",
"#5 c #8c720c",
"#6 c #242224",
"#7 c #345ecc",
"#8 c #e4e2e4",
"#9 c #5c6274",
"a. c #8492b4",
"a# c #947e2c",
"aa c #bc9a54",
"ab c #a49264",
"ac c #1c4e7c",
"ad c #a48234",
"ae c #c48e0c",
"af c #7c5204",
"ag c #9caac4",
"ah c #9c92b4",
"ai c #a49ecc",
"aj c #c4ba94",
"ak c #c4c2bc",
"al c #d4d2d4",
"am c #8c8a8c",
"an c #a4a2a4",
"ao c #5c92e4",
"ap c #646a7c",
"aq c #2c1e04",
"ar c #d49e24",
"as c #8c5a04",
"at c #1c1204",
"au c #846224",
"av c #dcdadc",
"aw c #e4aa0c",
"ax c #544e44",
"ay c #bc9a3c",
"az c #846a0c",
"aA c #d4b614",
"aB c #bcbebc",
"aC c #644a0c",
"aD c #ecce3c",
"aE c #f4da34",
"aF c #c4960c",
"aG c #74520c",
"aH c #b4b6b7",
"aI c #b49254",
"aJ c #b48a1c",
"aK c #c4860c",
"aL c #f4f2f4",
"aM c #f4ce0c",
"aN c #343234",
"aO c #646264",
"aP c #a46e04",
"aQ c #c4922c",
"aR c #8c96ac",
"aS c #ecc20c",
"aT c #4c3204",
"aU c #e4a60c",
"aV c #746654",
"aW c #b4aea4",
"aX c #746e6c",
"aY c #545664",
"aZ c #6c5e4c",
"a0 c #5c3a04",
"a1 c #1c1a1c",
"a2 c #b4a694",
"a3 c #744a04",
"a4 c #9c7a2c",
"a5 c #846634",
"a6 c #545254",
"a7 c #bc964c",
"a8 c #b4b2b4",
"a9 c #a4aabc",
"b. c #cca20c",
"b# c #7c8294",
"ba c #d49e0c",
"bb c #9c8a74",
"bc c #c48a0c",
"bd c #3c2a04",
"be c #5c3e04",
"bf c #f4d616",
"bg c #b4b29c",
"bh c #e4be0c",
"bi c #2c2e2c",
"bj c #bcbabc",
"bk c #cccecc",
"bl c #ecce1c",
"bm c #64460c",
"bn c #7c7674",
"bo c #040604",
"bp c #b4860c",
"bq c #cc8e0c",
"br c #9c6604",
"bs c #acaeac",
"bt c #848684",
"bu c #6c6654",
"bv c #e4b60c",
"bw c #141614",
"bx c #747674",
"by c #cc9a0c",
"bz c #342604",
"bA c #bc8604",
"bB c #444644",
"bC c #241a04",
"bD c #c4c6c4",
"bE c #6c6e6c",
"bF c #ac7604",
"bG c #7c7e7c",
"bH c #f4be0c",
"bI c #949694",
"bJ c #3c3e3c",
"bK c #0c0e0c",
"bL c #d4aa0c",
"bM c #9c6e0c",
"bN c #eceeec",
"bO c #ecb60c",
"bP c #d49a0c",
"bQ c #ecbe0c",
"bR c #b47e04",
"bS c #242624",
"bT c #e4e6e4",
"bU c #d4d6d4",
"bV c #dcdedc",
"bW c #e4ae0c",
"bX c #f4f6f4",
"bY c #343634",
"bZ c #545a64",
"b0 c #1c1e1c",
"b1 c #b4aa94",
"b2 c #744e04",
"b3 c #144224",
"b4 c #2c2a2c",
"b5 c #cccacc",
"b6 c #cc9214",
/* pixels */
"#S#S#S#S#S#S#S#S#S#S#S#S#S#S#S#S#S#S#S#S#S#SaR#9#9bZ#S#S#S#S#S#S#S#S#S#S#S#S#S#S#S#S#S#S#S#S#S#S#S#S#S#S#S#S#S#S#S#S#S#S#S#S#S#S#S#S#S#S#S#S#S#S#S#S#S#S#S#S#S#S",
"#S#S#S#S#S#S#S#S#S#S#S#S#S#S#S#S#S#S#S#Sa.a1...........haR#S#S#S#S#S#S#S#S#S#S#S#S#S#S#S#S#S#S#S#S#S#S#S#S#S#S#S#S#S#S#S#S#S#S#S#S#S#S#S#S#S#S#S#S#S#S#S#S#S#S#S",
"#S#S#S#S#S#S#S#S#S#S#S#S#S#S#S#S#S#Sagbi..................bZ#S#S#S#S#S#S#S#S#S#S#S#S#S#S#S#S#S#S#S#S#S#S#S#S#S#S#S#S#S#S#S#S#S#S#S#S#S#S#S#S#S#S#S#S#S#S#S#S#S#S",
"#S#S#S#S#S#S#S#S#S#S#S#S#S#S#S#S#Sa...bobY.D................#9#S#S#S#S#S#S#S#S#S#S#S#S#S#S#S#S#S#S#S#S#S#S#S#S#S#S#S#S#S#S#S#S#S#S#S#S#S#S#S#S#S#S#S#S#S#S#S#S#S",
"#S#S#S#S#S#S#S#S#S#S#S#S#S#S#S#Sag.h#k#i#9#D.................D#S#S#S#S#S#S#S#S#S#S#S#S#S#S#S#S#S#S#S#S#S#S#S#S#S#S#S#S#S#S#S#S#S#S#S#S#S#S#S#S#S#S#S#S#S#S#S#S#S",
"#S#S#S#S#S#S#S#S#S#S#S#S#S#S#S#S#9..bobS.QaN...................l#S#S#S#S#S#S#S#S#S#S#S#S#S#S#S#S#S#S#S#S#S#S#S#S#S#S#S#S#S#S#S#S#S#S#S#S#S#S#S#S#S#S#S#S#S#S#S#S",
"#S#S#S#S#S#S#S#S#S#S#S#S#S#S#S#S.h......#kbw..................#D#S#S#S#S#S#S#S#S#S#S#S#S#S#S#S#S#S#S#S#S#S#S#S#S#S#S#S#S#S#S#S#S#S#S#S#S#S#S#S#S#S#S#S#S#S#S#S#S",
"#S#S#S#S#S#S#S#S#S#S#S#S#S#S#Sa...............................#D#S#S#S#S#S#S#S#S#S#S#S#S#S#S#S#S#S#S#S#S#S#S#S#S#S#S#S#S#S#S#S#S#S#S#S#S#S#S#S#S#S#S#S#S#S#S#S#S",
"#S#S#S#S#S#S#S#S#S#S#S#S#S#S#S.l........bw#k............#k......#S#S#S#S#S#S#S#S#S#S#S#S#S#S#S#S#S#S#S#S#S#S#S#S#S#S#S#S#S#S#S#S#S#S#S#S#S#S#S#S#S#S#S#S#S#S#S#S",
"#S#S#S#S#S#S#S#S#S#S#S#S#S#S#SbZ.......ha1.h#6........bw.D......#S#S#S#S#S#S#S#S#S#S#S#S#S#S#S#S#S#S#S#S#S#S#S#S#S#S#S#S#S#S#S#S#S#S#S#S#S#S#S#S#S#S#S#S#S#S#S#S",
"#S#S#S#S#S#S#S#S#S#S#S#S#S#S#S#D......bK.0aHanapbK.....hbtam.h..#S#S#S#S#S#S#S#S#S#S#S#S#S#S#S#S#S#S#S#S#S#S#S#S#S#S#S#S#S#S#S#S#S#S#S#S#S#S#S#S#S#S#S#S#S#S#S#S",
"#S#S#S#S#S#S#S#S#S#S#S#S#S#S#S#D......aNavbN#tbT#j....#d#tbU.0..#S#S#S#S#S#S#S#S#S#S#S#S#S#S#S#S#S#S#S#S#S#S#S#S#S#S#S#S#S#S#S#S#S#S#S#S#S#S#S#S#S#S#S#S#S#S#S#S",
"#S#S#S#S#S#S#S#S#S#S#S#S#S#S#S#D.......Pal.3b0aLam#kbobkbEb4a9..#S#S#S#S#S#S#S#S#S#S#S#S#S#S#S#S#S#S#S#S#S#S#S#S#S#S#S#S#S#S#S#S#S#S#S#S#S#S#S#S#S#S#S#S#S#S#S#S",
"#S#S#S#S#S#S#S#S#S#S#S#S#S#S#S#D......a9#db0..bIbGa1#kaHb4...s.h#S#S#S#S#S#S#S#S#S#S#S#S#S#S#S#S#S#S#S#S#S#S#S#S#S#S#S#S#S#S#S#S#S#S#S#S#S#S#S#S#S#S#S#S#S#S#S#S",
"#S#S#S#S#S#S#S#S#S#S#S#S#S#S#S#D.......qbG....ana##5#Ibubo..bI#i#S#S#S#S#S#S#S#S#S#S#S#S#S#S#S#S#S#S#S#S#S#S#S#S#S#S#S#S#S#S#S#S#S#S#S#S#S#S#S#S#S#S#S#S#S#S#S#S",
"#S#S#S#S#S#S#S#S#S#S#S#S#S#S#S.D.......0aL.yaz.MbLbv#Rbp.YaXb##D#S#S#S#S#S#S#S#S#S#S#S#S#S#S#S#S#S#S#S#S#S#S#S#S#S#S#S#S#S#S#S#S#S#S#S#S#S#S#S#S#S#S#S#S#S#S#S#S",
"#S#S#S#S#S#S#S#S#S#S#S#S#S#S#S.........t#s.TbfaE#Cbh.M#R#FabaN#i#S#S#S#S#S#S#S#S#S#S#S#S#S#S#S#S#S#S#S#S#S#S#S#S#S#S#S#S#S#S#S#S#S#S#S#S#S#S#S#S#S#S#S#S#S#S#S#S",
"#S#S#S#S#S#S#S#S#S#S#S#S#S#S#S.........JaDbfbfbf.NblaS#R.obMaG#D#S#S#S#S#S#S#S#S#S#S#S#S#S#S#S#S#S#S#S#S#S#S#S#S#S#S#S#S#S#S#S#S#S#S#S#S#S#S#S#S#S#S#S#S#S#S#S#S",
"#S#S#S#S#S#S#S#S#S#S#S#S#S#S.l.........JbP.I.abfbf#w.abQ#Mae#q#D#S#S#S#S#S#S#S#S#S#S#S#S#S#S#S#S#S#S#S#S#S#S#S#S#S#S#S#S#S#S#S#S#S#S#S#S#S#S#S#S#S#S#S#S#S#S#S#S",
"#S#S#S#S#S#S#S#S#S#S#S#S#S#S.1..bw.1..bm#PbPaF.f.AbfblaS#p#A.n#D#S#S#S#S#S#S#S#S#S#S#S#S#S#S#S#S#S#S#S#S#S#S#S#S#S#S#S#S#S#S#S#S#S#S#S#S#S#S#S#S#S#S#S#S#S#S#S#S",
"#S#S#S#S#S#S#S#S#S#S#S#S#S#L..bw#dbS...u.U.O#PbFbR#4aA#4aJaubS#D#S#S#S#S#S#S#S#S#S#S#S#S#S#S#S#S#S#S#S#S#S#S#S#S#S#S#S#S#S#S#S#S#S#S#S#S#S#S#S#S#S#S#S#S#S#S#S#S",
"#S#S#S#S#S#S#S#S#S#S#S#S#S#B..#i#j..bo.qbk#y#mbc.j#Fby#Aad#e.Q#D#S#S#S#S#S#S#S#S#S#S#S#S#S#S#S#S#S#S#S#S#S#S#S#S#S#S#S#S#S#S#S#S#S#S#S#S#S#S#S#S#S#S#S#S#S#S#S#S",
"#S#S#S#S#S#S#S#S#S#S#S#S#Sbo....bo..aNaLbXalaB.U#qaP.8a4bj.VbJa1#S#S#S#S#S#S#S#S#S#S#S#S#S#S#S#S#S#S#S#S#S#S#S#S#S#S#S#S#S#S#S#S#S#S#S#S#S#S#S#S#S#S#S#S#S#S#S#S",
"#S#S#S#S#S#S#S#S#S#S#S#SaY..........an#S#S#Salakbja2b1akaB#8bG..#D#S#S#S#S#S#S#S#S#S#S#S#S#S#S#S#S#S#S#S#S#S#S#S#S#S#S#S#S#S#S#S#S#S#S#S#S#S#S#S#S#S#S#S#S#S#S#S",
"#S#S#S#S#S#S#S#S#S#S#S#S..........bi#S#S#S#S#SbTbDaBaBbjal#SaLbK.D.l#S#S#S#S#S#S#S#S#S#S#S#S#S#S#S#S#S#S#S#S#S#S#S#S#S#S#S#S#S#S#S#S#S#S#S#S#S#S#S#S#S#S#S#S#S#S",
"#S#S#S#S#S#S#S#S#S#S#S.hbo........#g#S#S#S#S#S#SbN#hbjbDbN#S#S.0...h#S#S#S#S#S#S#S#S#S#S#S#S#S#S#S#S#S#S#S#S#S#S#S#S#S#S#S#S#S#S#S#S#S#S#S#S#S#S#S#S#S#S#S#S#S#S",
"#S#S#S#S#S#S#S#S#S#S.l..........bo#S#S#S#S#S#S#S#SbXaL#S#S#S#SbVbo..#B#S#S#S#S#S#S#S#S#S#S#S#S#S#S#S#S#S#S#S#S#S#S#S#S#S#S#S#S#S#S#S#S#S#S#S#S#S#S#S#S#S#S#S#S#S",
"#S#S#S#S#S#S#S#S#Sa.bo..........bBbX#S#S#S#S#S#S#S#S#S#S#S#S#S#S.0....a.#S#S#S#S#S#S#S#S#S#S#S#S#S#S#S#S#S#S#S#S#S#S#S#S#S#S#S#S#S#S#S#S#S#S#S#S#S#S#S#S#S#S#S#S",
"#S#S#S#S#S#S#S#S#S.h............#VaLaL#S#S#S#S#S#S#S#S#S#S#S#SbXanbo....#L#S#S#S#S#S#S#S#S#S#S#S#S#S#S#S#S#S#S#S#S#S#S#S#S#S#S#S#S#S#S#S#S#S#S#S#S#S#S#S#S#S#S#S",
"#S#S#S#S#S#S#S#SbZ...............xb5bkalav#8#S#S#SaLbT#tbX#SaLbUan#k....#D#S#S#S#S#S#S#S#S#S#S#S#S#S#S#S#S#S#S#S#S#S#S#S#S#S#S#S#S#S#S#S#S#S#S#S#S#S#S#S#S#S#S#S",
"#S#S#S#S#S#S#S#L........bo.1bo#Bbk.VbDav#tbX#S#S#S#S#SaL#S#S#Sav#H#6......a.#S#S#S#S#S#S#S#S#S#S#S#S#S#S#S#S#S#S#S#S#S#S#S#S#S#S#S#S#S#S#S#S#S#S#S#S#S#S.p#S#S#S",
"#S#S#S#S#S#S#S#B......#k#6....b5b5bTbX#S#S#S#S#S#S#S#SbX#S#S#S#S#t.Fbobw..ap#S#S#S#S#S#S#S#S#S#S#S#S#S#S#S#S#S#S#S#S#S#S#S#S#S#S#S#S#S#S#S#S#S#S#S#S#S#S#Y#S#S#S",
"#S#S#S#S#S#S#S......bobSbo..bxbkbN#S#S#S#S#S#S#S#S#S#S#S#S#S#S#S#SbNbo.Dbw#D#S#S#S#S#S#S#S#S#S#S#S#S#S#S#S#S#S#S#S#S#S#S#S#S#S#S#S#S#S#S#S#S#S#S#S#S#S.p#Y#S#S#S",
"#S#S#S#S#S#Sa.bo....a1bwb4bo#8#8#S#S#S#S#S#S#S#S#S#S#S#S#S#S#S#S#S#S#B..a1.h#S#S#S#S#S#S#S#S#S#S#S#S#S#S#S#S#S#S#S#S#S#S#S#S#S#S#S#S#S#S#S#S#S#S#S#S#S.p#c#S#S#S",
"#S#S#S#S#S#Sap......#6.D.1bJ#S#S#S#S#S#S#S#S#S#S#S#S#S#S#S#S#S#S#S#SaB...hboa.#S#S#S#S#S#S#S#S#S#S#S#S#S#S#S#S#S#S#S#S#S#S#S#S#S#S#S#S#S#S#S#S#S#S#S#S.p.p#S#S#S",
"#S#S#S#S#S#S#D....#kbw....#V#S#S#S#S#S#S#S#S#S#S#S#S#SbXbX#S#S#S#S#S#SaN..bw.1#S#S#S#S#S#S#S#S#S#S#S#S#S#S#S#S#S#S#S#S#S#S#S#S#S#S#S#S#S#S#S#S#S#S#S#S.p#c#S#S#S",
"#S#S#S#S#S#S......bw......#g#S#S#S#S#S#S#S#S#S#S#S#S#S#SaL#S#S#S#S#S#SbI..a1..#S#S#S#S#S#S#S#S#S#S#S#S#S#S#S#S#S#S#S#S#S#S#S#S#S#S#S#S#S#S#S#S#S#S#S#S.p#c#S#S#S",
"#S#S#S#S#S#Sbo....a1.......2#S#S#S#S#S#S#S#S#S#S#S#S#S#SbN#S#S#S#S#S#S#S.Db0..ap#S#S#S#S#S#S#S#S#S#S#S#S#S#S#S#S#S#S#S#S#S#S#S#S#S#S#S#S#S#S#S#S#S#S#S#c#Y#S.p#Y",
"#S#S#S#S#S#S......bKbo....bs#S#S#S#S#S#S#S#S#S#S#S#S#SbXbN#S#S#S#S#S#S#Sa6a1...h#S#S#S#S#S#S#S#S#S#S#S#S#S#S#S#S#S#S#S#S#S#S#S.p#S#S#S#S#S#S#S#S#S#S#S#c.9#c.p.p",
"#S#S#S#S#S#9........bw....a8#S#S#S#S#S#S#S#S#S#S#S#S#SbX#t#S#S#S#S#S#S#S.0.h#k...l#S#S#S#S#S#S#S#S#S#S#S#S#S#S#S#S#S#S#S#S#S.p.p#S#S#S#S#S#S#S#S#S#S#S#Yai.p.R.R",
"#S#S#S#S#S#9........bw....bj#S#S#S#S#S#S#S#S#S#S#S#S#SbXbT#S#S#S#S#S#S#SambS.D...h#S#S#S#S#S#S#S#S#S#S#S#S#S#S#S#S#S#S#S#S#S.p.p#S#S#S#S#S#S#S#S#S#S#S#Y#Y.p.R.R",
"#S#S#S#S#S#9........a1....aB#S#S#S#S#S#S#S#S#S#S#S#S#S#S#t#S#S#S#S#S#S#S.xbSbY....#S#S#S#S#S#S#S#S#S#S#S#S#S#S#S#S#S#S#S#S#S.p#c#S#S#S#S#S#S#S#S#S#S.p#c#c#c#c.p",
"#S#S#S#S#S#9......bKbwbK..a8#S#S#S#S#S#S#S#S#S#S#S#S#S#S#t#S#S#S#S#S#S#San#6bo....#S#S#S#S#S#S#S#S#S#S#S#S.p#S#S#S#S#S.p.p#c#c#Y#S#S#S#S#S#S#S#S#S#S#Y#Y#Y.9#Y#c",
"#S#S#S#S#SbZ...1a1bK..bKbwan#S#S#S#S#S#S#S#S#S#S#S#S#S#S#t#S#S#S#S#S#S#SanbK#X.H#b#S#S#S#S#S#S#S#S#S#S#S#S.p#S#S.p#c#Y#Y#Y#c.p#Y#c#S#S#S#S#S#S#S#S#S.9.9.9.9.p#c",
"#S#S#S#S#S#Sa1.1........bK#T.C.E#S#S#S#S#S#S#S#S#S#S#S#SbT#S#S#S#S#S#S#SbBaC#fbH#x#S#S#S#S#S#S#S#S#S#S#S.p.9#Y#Y#c.p#c.9.9.9#c#c.p#Y#S#S#S#S#S#S#S#c.9aiai.9.mbo",
"#S#S#S#S#S.ibmbw...........MaMbO#S#S#S#S#S#S#S#S#S#S#S#S#t#S#S#S#S#SbU#U.wbObH#f.ob1#S#S#S#S#S#S#S#S.p#Y.9.9.9#c.p#cai.9.9.9.9#Y.R.p#Y#S#S#S#S#S#S.9aiaiacbobobo",
"#S#S#S#S#Sbl.Xbo...........BbHbW#S#S#S#S#S#S#S#S#S#S#S#SbN#S#S#S#SbVb0bo.7bHbH#f#Mae.q.L#S#S#S#S#S.p#c.9ai#r.9#c.p.p.9###1boboboao.R#Y#Y.p.p.p.p#c.9.9.9#1bo.v..",
"#S#S#S#SanbHbQaC........bo#FbQawbN#S#S#S#S#S#S#S#S#S#S#S#S#S#S#S#taN...gbHbHbHbHbOaUb6aeaQ#x#H#S#S#S.p.9.9.9ai#Y#c#.bobobo..bo..bobS.9.p#c#c#c#Y#Yal.9.v.v.v...v",
"#S#S#S#S.G#fbOby#o.KatbCb2.I#Maw.VbT#S#S#S#S#S#S#S#S#S#S#S#S#Sbgb0..#QbhbHbH#fbH#f#f#M.zbO.o.d#S#S#S#SbV.9.9.9#cbo.......v.v.v.vbobobobS#Y.R.p#c.9bo.v.v.v...vb3",
"#S#S#S.L.5#f#f#v#PbAbR.Obc.obW.Wakav#S#S#S#S#S#S#S#S#S#S#S#S#ebo.....##2#fbHbHbHbHbHbH#f#f#Maa#S#S#S#S.p.9al.9aibobo.v.v...v...v.v.v.v...v.v.v.v...v.v...v.v.v.v",
"#S#S#Sa8bO#fbHbHbW.obPbP.WbW#M.IakbV#S#S#S#S#S#S#S#S#S#S#S#tb0..bobdbQbHbHbH#fbH#fbH#fbH#fawaa#S#S#S#S.p.9#c#Y.9bo.v..b3.v.v.v.v...v...v.v.....v.v.v...v.v.v.v#9",
"#S#SaHbWbHbH#fbH#v#Mawaw#M#vbWbc.q#t#S#S#S#S#S#S#S#S#S#S#S#n......#EbH#fbH#fbHbHbHbHbHbH#f.o#Z#S#S#S#S.pai#Y#c#G.v.vb3b3.v.v.v.v.v.v.vb3b3.v.v...v.v.v.v.v#9aOaO",
"#Saj#f#f#fbHbHbH#f#f#RbO#f#v#Mbcax#t#S#S#S#S#S#S#S#S#S#S#SbVbo..bd.MbH#fbHbHbH#fbH#fbH#f#f.o.G#S#S#S#S#Y#r#c#Y.v...v...v.v#9aO#9#j.v.v.v.v.v.v#9aO#9aO#9aOaO#jaO",
"#S#v#fbHbHbH#fbHbHbH#fbHbH#f.zbc.SbJbV#S#S#S#S#S#S#S#S#S#S#Salbub.#2#f#fbHbHbHbHbHbHbH#f#f.o#O#S#S#S#S.9ai#Yai.v.v.v.v.v#jamam.PaO#9aO#9#9aO#9aO#jaO#jaObtam.Pam",
"#SbW#vbH#fbHbHbH#fbHbHbHbH#f.zbcaq..#6#8#S#S#S#S#S#S#S#S#S#S#Say.abH#fbHbH#fbH#fbH#fbH#f#f.oaI#S#S#S.pai.9#Ybo.v...v.vaOaO.PbtamamaO#jaO.u#j.Pam.Pam.Pam.Pambtam",
"#S#maU#fbHbH#fbHbHbH#fbH#f#f#MbAbz....bSaB#S#S#S#S#S#S#S#S#S#hbabQ#f#fbHbHbHbHbHbHbHbH#f#fawaa#S#S#S#Y#r.9b4.v.v.v.v.vam.Pbtam.Pbtam.P.Pbt.Pamambt.Pbtambtam.Pam",
"#S#S#Zaraw#fbH#f#fbHbHbHbH#f#Mbcbd.........QanalbX#S#S#Salbt.H.obO#fbH#f#fbH#fbH#fbH#fbH#f#M.j#H#S.p.9ai#7.v...v.v.v#9.Pbt.Pambt.Pambtam.Pbt.Pamamamam.Pbkbk#hbk",
"#S#S#S#SaI#Paw#v#fbH#fbH#fbH#MaK#a..............bo#kbw#k..#kbrbabObHbH#fbHbHbHbHbH#f#v#v#Mawbq.d#S#Y#r#rbo.vbo.v.v.vamamamamam.Pamam.Pbtamamambtbkbk#hbkb5b5bkb5",
"#S#S#S#S#S.qaQaUaw#v#fbHbH#f.o.OaT........................bCas#PbO#f#f#fbH#f#v#v#v#MaU.o.Wbq.OaW.p.9ai#1.v...v.v.v#9.Pbt.Pbtambt.Pbt.Pambkbkbkbkb5bkb5bkb5bkb5bk",
"#S#S#S#S#S#S#Ha7aK.o#M#v#vaw#PbFaT........................bC#0#W.W#M#f#f#vaw.W#PaKaK.O.8.r.Zbs#S#c.9#7bo.v.v.v.v#j.Pamamamambkbkbkbkb5bkb5bkb5b5bkb5bkb5bkb5bkb5",
"#S#S#S#S#S#S#S#S.4#WbqbP.W.I.c.k#u#9bZ#L#Y.9#c#c.p.R.R#9#9#1beas#W.I.W#P.jbRaP.kas.4bb#S#S.p#S.p#Y.9bo.v.....v.vapbtambt.Pb5bkb5b5bkb5bkb5bkb5bkb5bkb5bkb5bkb5bk",
"#S#S#S#S#S#S#S#S.p.4brbFbF.8#qa3aX.p#Y#Y.9.9#c#cai.R.R.R.R#LaZ.e#z.kbrbrasa5#lbI#S#S#S#S.p.p#S#c.p#cbo.v.v.v.v#jamam.Pamamb5bkb5bkb5bkb5bkb5bkb5bkb5bkb5bkb5bkb5",
"#S#S#S#S#S#S#S#S.p.paVa3af#0a0aZ.p.p#Y.9#Y#Yahbobo...R.R.R#Y#YaZa0#Kbe.6.p.p.p#c#c#S#S.p.p.p#c#c#Y#N.v.v...v.vaO.Pbtambtbkbkb5bkb5bkb5bkb5bkb5bkb5bkb5bkb5bkb5bk",
"#S#S#S#S#S#S#S#S.p.p.p#Jbxbnbobobobo#.#.bobobobo..bo.v.p.R#c#Yai.9#Nb3#Y.R.p.p.R.p#c#c#c.p.R.R.pbi.v.....v.v#9.Pbtamamambkb5bkb5bkb5bkb5bkb5bkb5bkb5bkb5bkb5bkb5",
"#S#S#S#S#S#S#S#S#S#c#c#.bo#.......b3.vb3b3b3b3b3b3.vbo...p#c#Y.9#d..bobo.v.p.p.p.p.p.p#c.p.R.pbS.v.v.v...v.vaOam.Pbt.Pb5bkb5bkb5bkb5bkb5bkb5bkb5bkb5bkb5bkb5bkb5",
"#S#S#S#S#S#S#S#S#S.p#c#..vb3b3....b3............b3b3b3.vbS.p#cbo....b4..bobobSai#c#c.p#c.p.9bo.v...v.v.v.v#9.Pbtamamambkb5bkb5bkb5bkb5bkb5bkb5bkb5bkb5bkb5bkb5bk",
"#S#S#S#S#S#S#S#S.p.p#Y..b3.............b.....b.v...v.v...v.v...v.v.....v...vbobobobobo.v.m.v.v.v...v.v.vaOaOamambt.Pbtbkb5bkb5bkb5bkb5bkb5bkb5bkb5bkb5bkb5bkb5bk",
"#S#S#S#S#S#S#S#S.p.p#c.....v.v...v.v.v.vaO#j#j.v.v.v.v.v...v.v.v...v.v.v.v.....v.v.v.v.v...v...v.v.v.vaO#jambtam.Pamamb5bkb5bkb5bkb5bkb5bkb5bkb5bkb5bkb5bkb5bkb5",
"#S#S#S#S#S#S#S#S.p.paibo..#j#jaO#j#jaO#jaOaOaO#9aO.v.v.v.v.v.v.v.v.v.v.v.v.v.v.v.v...v...v.v.v.v.v.v#9aO.Pam.Pbtambkbkbkb5bkb5bkb5bkb5bkb5bkb5bkb5bkb5bkb5bkb5bk",
"#S#S#S.p.p.p.p.p.p.p.vboboaOaO#jaOaOaO#jaO#jaO#jaO#j#9.v.v.v.v#9aO#j#9.v.v.v.v.v.v.v.v.v.v.v.v.v#9aO#j.Pbt.Pbtamambkb5b5bkb5bkb5bkb5bkb5bkb5bkb5bkb5bkb5bkb5bkb5",
"#S#S#S.p.p.p.p#c##bo..bo..bt.Pam.Pbt.Pam.Pam.Pam.PamaO#9aO#9aOaO#jaOaO#jap#j#9aO#9#9aO#9#jap#jaOaO#9.Pamamamam.Pb5bkb5bkb5bkb5bkb5bkb5bkb5bkb5bkb5bkb5bkb5bkb5bk",
"#S#S#S#S.paibo..bo..b4btamam.Pbtamam.Pbtambtambtambtam.P#jaO#jaOaO#jaOaO#jaOaO#jaOaO#jaOaO#jaO#j.Pamamambt.Pbtb5bkb5bkb5bkb5bkb5bkb5bkb5bkb5bkb5bkb5bkb5bkb5bkb5",
"#S#S#S#S#.bo..bS.b#3bt.Pambtamamambtamam.Pam.Pam.Pamamam.Pam.Pambt.Pamamam#jaOaO#jaOaO#jaO.Pam.Pambt.Pamamambkbkb5bkb5bkb5bkb5bkb5bkb5bkb5bkb5bkb5bkb5bkb5bkb5bk",
"#S#S#S..bo.v.v.v.vbtamamam.Pbtambkbkbkb5bkb5bkambt.Pbtambtambtam.Pam.Pbtam.Pbtam.Pamam.Pbtamambtam.Pbt.Pbtb5bkb5bkb5bkb5bkb5bkb5bkb5bkb5bkb5bkb5bkb5bkb5bkb5bkb5",
"..bobobob4b4am.Pam.Pambt.Pambkbkb5bkb5bkb5bkb5bkbkamam.Pam.Pambtambt.Pam.Pam.Pambtambt.Pamambt.Pamamambkbkbkb5bkb5bkb5bkb5bkb5bkb5bkb5bkb5bkb5bkb5bkb5bkb5bkb5bk",
"......amambtambtambt.Pamamb5bkb5bkb5bkb5bkb5bkb5bkb5bkb5bkb5bkbkbkamam.Pbtambtamam.Pam.Pbtam.Pambtambkb5b5b5bkb5bkb5bkb5bkb5bkb5bkb5bkb5bkb5bkb5bkb5bkb5bkb5bkb5",
"..amambt.Pamam.Pamambt.Pb5bkb5bkb5bkb5bkb5bkb5bkb5bkb5bkb5bkb5bkb5bkb5bkamam.Pambtambt.Pbkbkb5bkbkbkb5bkbkbkb5bkb5bkb5bkb5bkb5bkb5bkb5bkb5bkb5bkb5bkb5bkb5bkb5bk",
"..btamamb5bkb5bkb5bkbkbkb5bkb5bkb5bkb5bkb5bkb5bkb5bkb5bkb5bkb5bkb5bkb5bkb5bkb5bkbkbkbkb5b5bkb5bkb5b5bkb5b5b5bkb5bkb5bkb5bkb5bkb5bkb5bkb5bkb5bkb5bkb5bkb5bkb5bkb5",
"..bkbkbkbkb5bkb5bkb5b5bkb5bkb5bkb5bkb5bkb5bkb5bkb5bkb5bkb5bkb5bkb5bkb5bkb5bkb5bkb5b5bkb5bkb5bkb5bkb5bkb5bkbkb5bkb5bkb5bkb5bkb5bkb5bkb5bkb5bkb5bkb5bkb5bkb5bkb5bk",
"..b5b5b5b5bkb5bkb5bkbkb5bkb5bkb5bkb5bkb5bkb5bkb5bkb5bkb5bkb5bkb5bkb5bkb5bkb5bkb5bkb5bkb5bkb5bkb5bkb5bkb5bkb5bkb5bkb5bkb5bkb5bkb5bkb5bkb5bkb5bkb5bkb5bkb5bkb5bkb5"
};
