/* XPM */
static char *logintopright[] = {
/* width height num_colors chars_per_pixel */
"    80    80       31            1",
/* colors */
". c #000000",
"# c #0242cc",
"a c #040405",
"b c #12421c",
"c c #144222",
"d c #1a562c",
"e c #1c4d7b",
"f c #242b77",
"g c #26428c",
"h c #2a2824",
"i c #315ccf",
"j c #322e2c",
"k c #3e6ae4",
"l c #568aec",
"m c #5a92e4",
"n c #5d5079",
"o c #616161",
"p c #66a2ec",
"q c #77b5fc",
"r c #7a727d",
"s c #8a8a8a",
"t c #9186a6",
"u c #9a92b4",
"v c #a69ecc",
"w c #afbbdb",
"x c #cacee4",
"y c #cccccc",
"z c #d2daec",
"A c #dae6f4",
"B c #e8f5ef",
"C c #ffffff",
/* pixels */
"CCCCCCCCCCCCCCCCCCCCCCCCCCCCCCCCCCCCCCCCCCCCCCCCCCCCCCCCCCCCCCCCCCCCCCCCCCCCCCCC",
"CCCCCCCCCCCCCCCCCCCCCCCCCCCCCCCCCCCCCCCCCCCCCCCCCCCCCCCCCCCCCCCCCCCCCCCCCCCCCCCC",
"CCCCCCCCCCCCCCCCCCCCCCCCCCCCCCCCCCCCCCCCCCCCCCCCCCCCCCCCCCCCCCCCCCCCCCCCCCCCCCCC",
"CCCCCCCCCCCCCCCCCCCCCCCCCCCCCCCCCCCCCCCCCCCCCCCCCCCCCCCCCCCCCCCCCCCCCCCCCCCCCCCC",
"CCCCCCCCCCCCCCCCCCCCCCCCCCCCCCCCCCCCCCCCCCCCCCCCCCCCCCCCCCCCCCCCCCCCCCCCCCCCCCCC",
"CCCCCCCCCCCCCCCCCCCCCCCCCCCCCCCCCCCCCCCCCCCCCCCCCCCCCCCCCCCCCCCCCCCCCCCCCCCCCCCC",
"CCCCCCCCCCCCCCCCCCCCCCCCCCCCCCCCCCCCCCCCCCCCCCCCCCCCCCCCCCCCCCCCCCCCCCCCCCCCCCCC",
"CCCCCCCCCCCCCCCCCCCCCCCCCCCCCCCCCCCCCCCCCCCCCCCCCCCCCCCCCCCCCCCCCCCCCCCCCCCCCCCC",
"CCCCCCCCCCCCCCCCCCCCCCCCCCCCCCCCCCCCCCCCCCCCCCCCCCCCCCCCCCCCCCCCCCCCCCCCCCCCCCCC",
"CCCCCCCCCCCCCCCCCCCCCCCCCCCCCCCCCCCCCCCCCCCCCCCCCCCCCCCCCCCCCCCCCCCCCCCCCCCCCCCC",
"CCCCCCCCCCCCCCCCCCCCCCCCCCCCCCCCCCCCCCCCCCCCCCCCCCCCCCCCCCCCCCCCCCCCCCCCCCCCCCCC",
"CCCCCCCCCCCCCCCCCCCCCCCCCCCCCCCCCCCCCCCCCCCCCCCCCCCCCCCCCCCCCCCCCCCCCCCCCCCCCCCC",
"CCCCCCCCCCCCCCCCCCCCCCCCCCCCCCCCCCCCCCCCCCCCCCCCCCCCCCCCCCCCCCCCCCCCCCCCCCCCCCCC",
"CCCzqllmwCCCCCCCCCCCCCCCCCCCCCCCCAm##kwCCCCCCCCCCCCCCCCCCqllzCCCCCCCCCCCCCCCCCCC",
"CAl######izCCCCCCCCCCCCCCCCCCCCCAi#####wCCCCCCCCCCCCCCCAi###lCCCCCCCCCCCCCCCCCCC",
"Ai##lwwmi##wCCCCCCCCCCCCCCCCCCCCq#kACqlACCCCCCCCCCCCCCCk#iqwmCCzwACCCCCCCCCCCCCC",
"k#iACCCCCl##ACCCCCCCCCCCCCCCCCCCl#wCCCCCCCCCCCCCCCCCCCC##ACCCCCl#wCCCCCCCCCCCCCC",
"#iACCCCCCCl#kCCCCCCCCCCCCCCCCCCCl#lCCCCCCCCCCCCCCCCCCCC##CCCCCCl#wCCCCCCCCCCCCCC",
"#qCCCCCCCCA##CC##mi#kCCzl##iqCCCz##imzCCCCCCzl##kqCCCql##lllqzli#klllCCCCCCCCCCC",
"#CCCCCCCCCCk#wC######CCk#####zCCCw####kACCCw######lCCl######lw#######CCCCCCCCCCC",
"#CCCCCCCCCCl#wC##mAClCAwACAl#lCCCCAqk##iACA##mACq##qCzw##wwwzAwk#wwwwCCCCCCCCCCC",
"#ACCCCCCCCCk#wC##CCCCCCCCCwm#lCCCCCCCAi#lCq#kCCCCq#kCCC##CCCCCCl#ACCCCCCCCCCCCCC",
"#qCCCCCCCCA##CC##CCCCCCqi####lCCCCCCCCA##Cl#wCCCCC##CCC##CCCCCCl#wCCCCCCCCCCCCCC",
"#iACCCCCCCl#kCC##CCCCCm#imww#lCCAwCCCCC##Cl#qCCCCA##CCC##CCCCCCl#wCCCCCCCCCCCCCC",
"k#iACCCCCl##ACC##CCCCC##ABBw#lCz##ACCCw#kCw#iCCCCl#lCCC##CCCCCCl#wCCCCCCCCCCCCCC",
"Ai##mwwmi##wCCC##CCCCC##zBzi#lCCi#iqwm##wCCi#iqwk##zCCC##CCCCCCl#lwwkCCCCCCCCCCC",
"CAl######izCCCC##CCCCCm######lCCAi#####mCCCAi#####wCCCC##CCCCCCz#####CCCCCCCCCCC",
"CCCzqllmwCCCCCCwwCCCCCCwllqzwzCCCCwllmzCCCCCCwllqACCCCCwwCCCCCCCzmllzCCCCCCCCCCC",
"CCCCCCCCCCCCCCCCCCCCCCCCCCCCCCCCCCCCCCCCCCCCCCCCCCCCCCCCCCCCCCCCCCCCCCCCCCCCCCCC",
"CCCCCCCCCCCCCCCCCCCCCCCCCCCCCCCCCCCCCCCCCCCCCCCCCCCCCCCCCCCCCCCCCCCCCCCCCCCCCCCC",
"CCCCCCCCCCCCCCCCCCCCCCCCCCCCCCCCCCCCCCCCCCCCCCCCCCCCCCCCCCCCCCCCCCCCCCCCCCCCCCCC",
"CCCCCCCCCCCCCCCCCCCCCCCCCCCCCCCCCCCCCCCCCCCCCCCCCCCCCCCCCCCCCCCCCCCCCCCCCCCCCCCC",
"CCCCCCCCCCCCCCCCCCCCCCCCCCCCCCCCCCCCCCCCCCCCCCCCCCCCCCCCCCCCCCCCCCCCCCCCCCCCCCCC",
"CCCCCCCCCCCCCCCCCCCCCCCCCCCCCCCCCCCCCCCCCCCCCCCCCCCCCCCCCCCCCCCCCCCCCCCCCCCCCCCC",
"CCCCACCCCCCCCCCCCCCCCCCCCCCCCCCCCCCCCCCCCCCCCCCCCCCCCCCCCCCCCCCCCCCCCCCCCCCCCCCC",
"CCCCxCCCCCCCCCCCCCCCCCCCCCCCCCCCCCCCCCCCCCCCCCCCCCCCCCCCCCCCCCCCCCCCCCCCCCCCCCCC",
"CCCCxACCCCCCCCCCCCCCCCCCCCCCCCCCCCCCCCCCCCCCCCCCCCCCCCCCCCCCCCCCCCCCCCCCCCCCCCCC",
"CCCCzACCCCCCCCCCCCCCCCCCCCCCCCCCCCCCCCCCCCCCCCCCCCCCCCCCCCCCCCCCCCCCCCCCCCCCCCCC",
"ACCCAACCCCCCCCCCCCCCCCCCCCCCCCCCCCCCCCCCCCCCCCCCCCCCCCCCCCCCCCCCCCCCCCCCCCCCCCCC",
"xCCCzACCCCCCCCCCCCCCCCCCCCCCCCCCCCCCCCCCCCCCCCCCCCCCCCCCCCCCCCCCCCCCCCCCCCCCCCCC",
"wCCCzACCCCCCCCCCCCCCCCCCCCCCCCCCCCCCCCCCCCCCCCCCCCCCCCCCCCCCCCCCCCCCCCCCCCCCCCCC",
"AxACxzCCCCCCCCCCCCCCCCCCCCCCCCCCCCCCCCCCCCCCCCCCCCCCCCCCCCCCCCCCCCCCCCCCCCCCCCCC",
"BAAzwzCCCCCCCCCCCACCCCCCCCCCCCCCCCCCCCCCCCCCCCCCCCCCCCCCCCCCCCCCCCCCCCCCCCCCCCCC",
"BBBAvxCCCCCCCCCCCAACCCCCCCCCCCCCCCCCCCCCCCCCCCCCCCCCCCCCCCCCCCCCCCCCCCCCCCCCCCCC",
"BBBAxxCCCCCCCCCCCAACCCCCCCCCCCCCCCCCCCCCCCCCCCCCCCCCCCCCCCCCCCCCCCCCCCCCCCCCCCCC",
"BAzzzzACCCCCCCCCCzACCCCCCCCCCCCCCCCCCCCCCCCCCCCCCCCCCCCCCCCCCCCCCCCCCCCCCCCCCCCC",
"AzxwxxxCCCCCCCCCCxzzAACCCCCACCCCCCCCCCCCCCCCCCCCCCCCCCCCCCCCCCCCCCCCCCCCCCCCCCCC",
"zzAwwwwCCCCCCCCCzxAzxxxzACCACCCCCCCCCCCCCCCCCCCCCCCCCCCCCCCCCCCCCCCCCCCCCCCCCCCC",
"aagwvvwzCCCCCCCxAzzwwwzAzxxwACCCCCCCCCCCCCCCCCCCCCCCCCCCCCCCCCCCCCCCCCCCCCCCCCCC",
"aaaaevvwCCCCCCxABxwwwwvzAzwwwxACCCCCCCCCCCCCCCCCCCCCCCCCCCCCCCCCCCCCCCCCCCCCCCCC",
"f.faawwwzAAAAxxBmaaaanwAAzwpvwzACCCCCCCCCCCCCCCCCCCCCCCCCCCCCCCCCCCCCCCCCCCCCCCC",
"ff.fffwxxxzzzAwhaaaaaaahzxvwwwACCCCCCCCCCCCCCCCCCCCCCCCCCCCCCCCCCCCCCCCCCCCCCCCC",
"fcf.fffawzABxhaaaffffaaaazwwwzCCCCCCCCCCCCCCCCCCCCCCCCCCCCCCCCCCCCCCCCCCCCCCCCCC",
"fffff.ff.ffff.ffff.f.ffaavwxwACCCCCCCCCCCCCCCCCCCCCCCCCCCCCCCCCCCCCCCCCCCCCCCCCC",
"ooffff.fff..ff.f.ffffc.fawxzwACCCCCCCCCCCCCCCCCCCCCCCCCCCCCCCCCCCCCCCCCCCCCCCCCC",
"oooofffff.ffccfffffffccfflzxvACCCCCCCCCCCCCCCCCCCCCCCCCCCCCCCCCCCCCCCCCCCCCCCCCC",
"soooooooooffffffooooff.f.fxzpxCCCCCCCCCCCCCCCCCCCCCCCCCCCCCCCCCCCCCCCCCCCCCCCCCC",
"sssssoooooooooooosssofffffvxvwCCCCCCCCCCCCCCCCCAACCCCCCCCCCCCCCCCCCCCCCCCCCCCCCC",
"sssssssssssooooossssooff.faxwvACCCCCCCCCCCCCCCCCzACCCCCCCCCCCCCCCCCCCCCCCCCCCCCC",
"ssssssssssssssssssssssfffffhwpxCCCCCCCCCCCCCCCCCzzCCCCCCCCCCCCCCCCCCCCCCCCCCCCCC",
"yyssssssssssssssssssssofff.fivwACCCCCCCCCCCCCCCCxzACCCCCCCCCACCCCCCCCCCCACCCCCCC",
"yyyyyyyysssssssssssssssfff.fappxCCCCCCCCCCCCCCCzxzzCCCCCCCCAACCCCCCCCCCCACCCCCCC",
"yyyyyyyyyyyyyssssssssssofff.favwACCCCCCCCCCCCCzxwwzACCCCAAAzACCCCCCCCCCAACCCCCCC",
"yyyyyyyyyyyyyyyyyyysssssoffffaiwzCCCCCCCCCCCCzAwwvxzAAzAAAAzzAAACCCCCCAAACCCCCCC",
"yyyyyyyyyyyyyyyyyyyyssssoff..fawxACACCCCCCCAxAAwwpxAABBBAzzwxAAAAAACAAAAACCCCCCC",
"yyyyyyyyyyyyyyyyyyyysssssoffffazAzCAACCCCAzzAAzwwpwxBBBBvzzwwxxABBACCCABACCCCCCC",
"yyyyyyyyyyyyyyyyyyyyyssssoff.ffrxzzAAACCzzAAAAzxwvxxBBBaaauxxwxAAACCCAAAACCCCCCC",
"yyyyyyyyyyyyyyyyyyyyysssssoff..fjABBAzzzABAABxbrwvxzBAfaaaaaahhaaaaaatAAACCCCCCC",
"yyyyyyyyyyyyyyyyyyyyyyssssoff.fffhABAzAAAAAAfaaarwxzAaafccccccfcaaahahzzCCCCCCCC",
"yyyyyyyyyyyyyyyyyyyyyysssssoffff.fawAzAzzvhaaahaaazAhfccc......c..ccfhzACCCCCCCC",
"yyyyyyyyyyyyyyyyyyyyyysssssoofff.fffgfaaaaaf.f..ff.ff.ff.fc..c......caxAACCCCCCC",
"yyyyyyyyyyyyyyyyyyyyyyssssssooffff.f.fffff..ffff.fff.fffffoooffff.ff.azAACCCCCCC",
"yyyyyyyyyyyyyyyyyyyyyyyysssssooffffff.f.ffffffffffffffffooooooooooooaavAACCCCCCC",
"yyyyyyyyyyyyyyyyyyyyyyyyssssssooofffffffffffffooooffffooooooooooooooaafAAAAAAAAC",
"yyyyyyyyyyyyyyyyyyyyyyyyyssssssoooooooooooooooooooooooosssssssssssss.aaanzAAAACC",
"yyyyyyyyyyyyyyyyyyyyyyyyyysssssssoooooooooooooooooooossssssssssssssssshaaaavACAC",
"yyyyyyyyyyyyyyyyyyyyyyyyyyysssssssssoooooooosssssssssssssssssssssssssssdbhaahCCC",
"yyyyyyyyyyyyyyyyyyyyyyyyyyyyssssssssssssssssssssssssssssssyyyyyyysssssssffffaauC",
"yyyyyyyyyyyyyyyyyyyyyyyyyyyyyyssssssssssssssssssssssssssyyyyyyyyyyysssssssshhaaa",
"yyyyyyyyyyyyyyyyyyyyyyyyyyyyyyysssssssssssssssssyyyyyyyyyyyyyyyyyyyyssssssssssaa"
};
