/* XPM */
static char * printer_xpm[] = {
"99 84 64 1",
" 	c None",
".	c None",
"+	c #F7F7F7",
"@	c #F1F1F1",
"#	c #FBFBFB",
"$	c #E9E9E9",
"%	c #B0AEB5",
"&	c #CCCCD2",
"*	c #D5D4DC",
"=	c #FDFCFB",
"-	c #EDEDEE",
";	c #F5F5F6",
">	c #DDDDE1",
",	c #C1C1C5",
"'	c #EFEEF4",
")	c #F3F3F4",
"!	c #E5E5E6",
"~	c #FDFEFD",
"{	c #F8F8F9",
"]	c #FEFEFE",
"^	c #F9FAFC",
"/	c #FCFCFD",
"(	c #9B9AA6",
"_	c #FEFDFD",
":	c #7A7A80",
"<	c #FDFBFB",
"[	c #5E5E61",
"}	c #8C8A90",
"|	c #FDFFFE",
"1	c #313033",
"2	c #FEFEFF",
"3	c #000000",
"4	c #090909",
"5	c #232324",
"6	c #474749",
"7	c #101010",
"8	c #171718",
"9	c #1E1D1E",
"0	c #68498B",
"a	c #9AA7DD",
"b	c #CED7F3",
"c	c #B7C0EC",
"d	c #5C2D32",
"e	c #DBB5B4",
"f	c #C96564",
"g	c #8B3B4A",
"h	c #150D26",
"i	c #E2E7F9",
"j	c #D28993",
"k	c #F4DD7D",
"l	c #EBDBBA",
"m	c #E3C55C",
"n	c #906949",
"o	c #F8FCFC",
"p	c #371628",
"q	c #FFFFF3",
"r	c #201106",
"s	c #F5F8FE",
"t	c #FCFDFE",
"u	c #6181DF",
"v	c #1D6D57",
"w	c #FCFBFF",
"x	c #ECEFFB",
"y	c #F1F4FD",
"............................+@#....................................................................",
"...........................$%%&*$=.................................................................",
".....................-;=.#>%%,%%%,*>'+.............................................................",
"...................)>&&*!&,,&,,,,%%%,,&!)..........................................................",
".................;!***&*&&*&&&&&&&&,,,,%,&>$+......................................................",
"...............~+>*>>!>>*****&&&&&&&,,,,,%%,,*!{~].................................................",
"..............{!!!!!!$!>$>!>******&&&&&&,,,,,%,,&*-{^..............................................",
".............;!@$$$-!!!$!$!$!>>******&&&&&&&,,,,,%,,&!-{...........................................",
".............@@))));@$@!!!!!!$!!>>******&&&&&&&,,,,,%%,,*>;'>;.....................................",
"..........{@@..){-;-/$;-!!!!!!$$!>!>******&&&&&&&,,,,,,,%%,,%%,*^..................................",
"..........)!!--)./~#-{)){{$!!!!!$!!>>>>******&&&&&&&,,,,,,,,,%%%%,&@...............................",
"..........@@~$$;$-$/##@;--$+!!!!!$!!$>********&&&&&&&&&,,,,,,,,,,,%%%&!+]..........................",
".........+$!*;#$@@)-$$#/#-#-$$!!!$!>!>!>>*****&*&&&&&&&&&,,,,,,,,,,,,%(%,*)+_......................",
".........;;*:,!;-{+-;!!!!;#;-{$$!!!!$>>**>!>*****&&*&&&&&&&&&,,,,,,,,,,,%%(%,*$^...................",
".........;>+!&*&*;)#@-$-!!!!-@@-!!!!$!>>!*>>>>******&&&&&&&&&&&&,,&,,,,,,&,,%(%,&$;<...............",
".........'>!;-)*->,!']-+-!!!!!!!$!!!$>!!>>>>>>>*******&*&&&&&&&&&&&&,&,,,,,,&,,%%%,,*!'{...........",
"........~!>$!!@$-!*!>-*'+!!!!$>!>!$$$$$>>>*>!*>>>>********&&*&&&&&&&&&&&,,,,,,,&,,%%%%,,>#.........",
"........#>>$!!!!!!$$$!>$$!!$!>!>>>>>>>!$$!!>>!*>**>>*********&*&&&&&&&&&&&&,,,,,,,,,,,%%%*#........",
"........+*>$!!!!!!!!!!$!!!!!>!>>>*********>!!>!>>>>*>>!**********&&&&&&&&&&&&&,,,,,,,,,,,%,&>#/....",
"........)&*>>!!!!!!!!!!!!!!!!>>>*>*********&*>!!!>>>***>>*********&&&&&&&*&*&,&&&&,,,,,,,,,,%,,>);~",
"........;&**>*!$$!!!!!!!$!>!>>>!>>***********&&**>>$>!>**>>*>>*>>*******&**&,&*&&&&&&,&,,,,,,,,%%,&",
"........$&*>*>>>!$!$!!$$!!!!>*>>***********&***&&&&*>!!!!>>**>>>>>*>******&,***&*&&&&&&&&,,,,,,,,&(",
".......]>&*>*>*>>>!>$!!!>>>>*>>**********&&*&**&***&&&*>>$!>>>>>*>*>>>*>>&&>>*****&&&*&&&&&&&&,,&&:",
".......~*&*****>>>!!>!>>>>>>>>*********&&*&*&&&*&&&*&*&&&&*$!$>>!>!>>!>>&*!>>>>>*******&&&&*,,&&*([",
"......./&&**&&*****>!>>>>>*>*>*******&&*&&&&&&&&&**&&****&&**>>!>!>!>$>&*$>!>>>!>>>>*******&%%&&(::",
".......]&%,&*********>!**********&**&**&&&&&&&&&&&&&*&&&&&&&&&&&*>!!$>&>$>!!>>!!>!>!>!*!*>*%&>*&}::",
"......./&%%%,,&>*>>*************&*&&&&&&&&&&&&&&&&&&&&&&&&*&*&**&&&>>&)@!$!>$!$>!!!$>!>!$*,&!*$,}::",
".......#&,&&,,,,,**$!*&*******&***&&&&&&&&&&&&&&&&&&&&&&&&&&&*&****>&,!>!$$$!!!!$!>$$!$$>,*$>>&}}::",
".......#,,,&&&&&,,,**;$*&&*******&&&&&&&&&&&&&&&&&&&&&&&&&&&&***&**>%&>**>>>$$!)$!!!!!$>&*!$$>((}:}",
".......^,%,,,&&*&&*::,*|;!&&&**&&&&&&&&&&&&&&&&&&&&&&&&&&&&&&&&&***&%>***>*>>!$$${@!!;!*>!$!!%((}:(",
".......#,%,,,&,,&&>>,[1[($2+>&&&&&&&&&&&&&&&&&&&&,&&&&&&&&&&&&&&**&&$~{$>***>*>>>>-@@!*>-@@),%((}[(",
"......./,(,,,,&&,*$,(:13456}!)-*&&&&&&&&&&&&,,,&&&&&,&&&,&,&&&&&&,,&**!+#++!!**!*>*!-*!$!)+&%%%}}[(",
".......]&(%%,,,,*)%(%}63343476,!$!*&&&,&,,,,&,&,,,,,&,&&&&&&&&&,,,,&&&&&*$##])$>*>>>>!$;-=&%%%(}}[(",
".......]&(,%%%,>!%%%%([5436[3338:%**>*&&,&,&&,,,&&&&,,&,&&&&&&&&,&,&*&&&&&&*$+#.@->!$#--.>,,%%(}:[(",
".......]&(,%%,>>(%,%%}::[:>[4843335:(%*>&&,,,&,,,,&&,,,,,&&&&&,,,,,&&&&&&&*&&&*$)#+#{)$.!%,,%%(}:[%",
"........*(%%&>&%,%%%%}6:'&133334744339[},>>*&,%,&,,,,,,&,,,&,&,,,,,&&&&&&&*&*&&,&*>)+;;$,,,%%((}:[%",
"........*(%&>%%,%%%%(:}-%15919843347743356},*>*,,,,,,,,,,,,&,,,,,,,&&&&&&&&&&&*&*&&&&!@&,&,%%((}:[,",
"........&(*>%%%%%%%(},;%[:0}}:,}1573347433496},>!>,,,,,,,,,,,,,,,,,,&&&&&&&&&&&&*>&*&&&,,,%%%((}:[&",
"........-,*%%,%%%%}(*;%:(}(aa&b*aa(0133333433496},*>&,,,,,,,,,,,,,,&&&&&&&&&&&*&&,*&**,,,,,%%((}[[>",
".......]$,%%%%%%(}($-(:}0(aa&*,ac*&c(:0618477333396}&$>*,,,,,,,,,%,,&&&&&&&&&&,&&(*&&*&,,,%%%(}:[:!",
"......^*((%%%%%(}%^!}:(0aaa*caa&c&a%,ac>!cd43744743386},>>*,%,,,,,,,,&&,,&&&&&%,-@&&&&&,,%%%((}:[:$",
".....+,(%%%%%%(}%^&:}((aac*ca&*c*c,%a*;..efg::14337743446}%>>,%%%%,,,,,,,,,&&&,%%&&&&&,,,,%%((}:[:$",
"...=!*>%%%%%(}},2&:}}(aaa*ca*bb*a%%cb$).&fff:6(:1h3377743336},!>,%,,,,,,,,,,&,&&(%&&&&,,,%%%((}:[:-",
"..~->>;,(%((((&!&}(}(aaa***i>>,*&ac([jj&fffd34,c(fgh33374383316:%,,,,,,,,,,,,,&&*&,,&,%,%%%(((}:[}@",
"..*%*>%(%(((%>!&%(}(a(ac*>>*jfj%%*(666:fffd431&cek%:06537(&63337(&,,%,,,,,,,,,,,&,,,&%,,%%%((}::[};",
"..&:(((%(((%,*&>(0(((%el**'jfj,%%,!(,[dffg440,cclk>ac*06(+*,[38%&%,%,,%,%%,%,,,,,,,,,%,%%%(((}:[[(^",
"./,(((%%(%,,}%@(0(a(a%*&&'**(e*e%je&jfjjfd31,b&,kkm0a&%l{>,*(9%!:%,%%%,,%,,,,%,,,,,,,%%%%%((}}:[6(2",
"./,}(%%%(,,}:%(0(a(a,c&&%,*'$&%%ejj$nnjjfd}%%%c&mf1d}el'***&[%;(:%,%%%%%,%%,,,,%,,,,%%%%%%((}}:[6%.",
".^%}(%%%:}[[}}0(aaaa,cii>%a*ba(%>>j>ejjjd8jljj,$k}:kkl>***&:%'%(:%,%%%%%%%%%%%}:%,,%%%%%%(((}::[6%.",
".;%}(%,,6[:%%0(((aaacb(,*}%c((%&ele&*jjf33h(>e(je*,m!!***&:%$%%(:,,%%%%%%%%%%%}(:,,%%%%%%((}}::6[!.",
".{%}(%,((&obaaaaaaa,*(5:[[}a(a,,f[*jjjfg[ff%ca}p51}!>***&:%$(%,}:,%%%%%%%%%%%&,}}%%%(%(%(((}::[6,..",
".{%}(,}}#.&aaaa%,%mmm75[840(a%e%11}ffff(akke((%}31>!&&&*}%$((%,}:%%%%%%%%%%%%,@&&%%%(%(((((}::6%...",
".+%}(:};.*(aa(acajmm}[fed6,},ee[[,(fff(&kk(}%%%(j$>&**&(%!(((%,}:%%%%%%%%%%%%%%,%%%%((%(((}:}[:]...",
".{%}}({.&(aa((c,acl:ddn}}((%qeg}bajfjgjmm%0}},%,!*&&&*(%$(}(%%,:[%%%%%(%%(%%(%%(%%%((((((}}:::.....",
".2,:%|{%aaa}(a&%(cer3gr1(a(.&},baajfjgfkm(000(>!&&&&*((!(}(%%%%}(%%%(((((%((%%(%%(%((((((}}:[}]....",
".#,,.{,(a(0}a*%%%>jp[:0}(,)&(&caajjjjdpnkm000,!&&&&*(}$%}(((%%}&.),(%(((((%(((((((((((((}}::[}.....",
"./).'%(a(:}a*,%%,c00(}000a}0&bccajfffd3rnk}0*$&&&,&(}-%}(((%%:,)>+%:%((((((((((((((}}((}}:::[*.....",
"....!aa}0}a*caaac%}a00:0ggp00}(}:fffd3p}fff5:!*&&*%($%:(((%%:,)>!,:}(((((((((((((((}}}}}}::6%......",
"./!@#^s&(c*aaaaaa:ggggggggggggd5gffn[3nkf%&[[(&*!!!!%:}((%%:%)>!%(}:(((((((((((((((}}}}}::6}#......",
"..-,*>+...-%(((a(0:fffffffmmmfdnfgd[fpdn:t/{>(&$$!-%:}(((%:}->-,}%}:(((((((((((((((}}}}}:[:-.......",
"..@,,%%,!...$ca((0((0fekkmmm:}[dg6nffgd4,.!*i&%,*$%:}(((%:}!>-,}(%}:((((((((((((((}}}}}:[[!........",
"../#>%}:}(%>..!*%(}}:0a*&au}[v::}(}nmjn7,~$b}}(((%}}}}((::**-&}}((::((((((((((((((}}}:::[,.........",
"...!%}}}:156:,...i&a(aaa&caa66&b((%6rmmr:2!emn(((}}}}}(:}->$&}}(((}:((((((((((((((}:}::[(w.........",
"..;,(:::6119756:$..xi*,aaaa1h(llk}::vnn1%'lml,(((}}}}}}[}&@!}}(}((::((((((((((((((}:}:[};..........",
"../-&,%[1166158456&...{$c(00%%:mm(671f}*|>@*x>(((}}}}}}[[}((}(}(((::((((((((((((((}::[:-...........",
"....].>*,:6111519379(-2..*(mmn:(}00[ff!s*>*$2&(((}}}}}}6[}:}((((}}::}}((((((((((((}::[,............",
".....{,%*!,}[595557734:%$..=}}/;,(:(g}y>!>*+.&(((}}}}}}[[}}((((((:,,(}}(((((((((((}:[(#............",
".....*(%%%&!*%[197789434[(,{..{>!!j00>$*&*+.2&(((}}}}}}6:}}(((((}%/.2*,(}(((((((((:[(+.............",
".....)!&%%(%,>>,}6834845611[%'..)$&:e-*&,+..*:}(}}}}}}:[:}}((((}(-.....-*%((}((((([:@..............",
".......#'*,%(%,&>&([1431:[9386(,..)$!*,&'..)[6((}:}}}}}[:}}(((}(!........{$&%(}((}[>...............",
"..........;!&%%(%,**,}15::619119[,..{>,$.).(4[(}}}}}}}}[::}((}}*..........._{>,%(:,................",
"............/;>,((%,&*%[[[:[[[6339[,].w..]%83[(}}}}}}}}6:}}(}:,2..............2{>&t................",
"...............{!&%(%%&}[[[[[:6347376%@..%433[(}}}}}}:61[:}(:%.....................................",
"..................;*,%%%(::[[[643777376%&8384[(}}}}}:}%}::::%).....................................",
".....................$&%%%%:[[6[63378743435[[[}}}}}}}%>+*%:(.......................................",
".......................-&,%%(:6%,:64338431:%:6::}}}}%&+..;>;.......................................",
".........................)!*,%(%%&,}[1336}%%}:}}}}:(,'.............................................",
".........................../-*,%%%,,,%:[}%%(,%::::(&)..............................................",
".............................~+!,%%%,,,%(((%,%%(}(,-...............................................",
"................................2-&,%%%%%(%,*&,%%%!................................................",
"...................................->&%%%%%*~.)*,!.................................................",
".....................................]!&%%*~....{..................................................",
"......................................./@!|........................................................",
"..................................................................................................."};
