/* XPM */
static char * procedit_xpm[] = {
"64 64 167 2",
"  	c None",
". 	c #CECECE",
"+ 	c #D6D6D6",
"@ 	c #A5A59C",
"# 	c #C6C6C6",
"$ 	c #F7EFEF",
"% 	c #F7FFFF",
"& 	c #FFF7F7",
"* 	c #F7F7F7",
"= 	c #FFFFFF",
"- 	c #B5B5B5",
"; 	c #DEEFE7",
"> 	c #EFEFEF",
", 	c #CED6CE",
"' 	c #DEF7EF",
") 	c #F7EFF7",
"! 	c #B5ADAD",
"~ 	c #BDB5BD",
"{ 	c #ADADAD",
"] 	c #BDBDBD",
"^ 	c #B5ADB5",
"/ 	c #F7FFF7",
"( 	c #D6DED6",
"_ 	c #DEDEDE",
": 	c #DEE7DE",
"< 	c #E7F7EF",
"[ 	c #848484",
"} 	c #949494",
"| 	c #8C8C8C",
"1 	c #848C84",
"2 	c #D6D6CE",
"3 	c #C6D6CE",
"4 	c #ADA5AD",
"5 	c #F7F7EF",
"6 	c #FFEFF7",
"7 	c #EFF7EF",
"8 	c #E7EFE7",
"9 	c #CECEC6",
"0 	c #FFEFE7",
"a 	c #D67B5A",
"b 	c #D67BAD",
"c 	c #D684B5",
"d 	c #D68CBD",
"e 	c #FFF7FF",
"f 	c #CE7352",
"g 	c #CE634A",
"h 	c #D66BA5",
"i 	c #F79CAD",
"j 	c #EFE7EF",
"k 	c #731821",
"l 	c #C60094",
"m 	c #D618AD",
"n 	c #BDADB5",
"o 	c #7B1063",
"p 	c #C60063",
"q 	c #D65AA5",
"r 	c #D673AD",
"s 	c #FF9CAD",
"t 	c #FFD6BD",
"u 	c #E7DEDE",
"v 	c #C66B9C",
"w 	c #A50018",
"x 	c #EF005A",
"y 	c #D6086B",
"z 	c #D673A5",
"A 	c #FFA5AD",
"B 	c #F7F7E7",
"C 	c #A5A5A5",
"D 	c #7B2129",
"E 	c #BD004A",
"F 	c #CE0052",
"G 	c #C64A5A",
"H 	c #CE5263",
"I 	c #FFA5B5",
"J 	c #CED631",
"K 	c #7B7B6B",
"L 	c #DED6D6",
"M 	c #7B0810",
"N 	c #BD0000",
"O 	c #7B0008",
"P 	c #730808",
"Q 	c #4A3939",
"R 	c #FFFFF7",
"S 	c #FFF7B5",
"T 	c #CECE94",
"U 	c #B5A573",
"V 	c #E7E7E7",
"W 	c #CEBDBD",
"X 	c #AD4263",
"Y 	c #6B0000",
"Z 	c #E7E7DE",
"` 	c #D6D69C",
" .	c #D6DE29",
"..	c #DEDEBD",
"+.	c #7B7B7B",
"@.	c #8C8484",
"#.	c #312929",
"$.	c #D6D6A5",
"%.	c #D6DE18",
"&.	c #E7EF00",
"*.	c #DEE721",
"=.	c #A5A594",
"-.	c #A59CA5",
";.	c #CEDE7B",
">.	c #737B73",
",.	c #313131",
"'.	c #DEE700",
").	c #EFF710",
"!.	c #FFFF9C",
"~.	c #DEE7D6",
"{.	c #ADA594",
"].	c #9C9C84",
"^.	c #000000",
"/.	c #292929",
"(.	c #F7FFDE",
"_.	c #E7EF10",
":.	c #F7F794",
"<.	c #FFF721",
"[.	c #EFEF10",
"}.	c #DEDE08",
"|.	c #292921",
"1.	c #D6DE31",
"2.	c #D6CE84",
"3.	c #D6E708",
"4.	c #CEC652",
"5.	c #ADA54A",
"6.	c #7B7B29",
"7.	c #FFFF94",
"8.	c #AD9C52",
"9.	c #737B29",
"0.	c #E7EF08",
"a.	c #D6E721",
"b.	c #EFF700",
"c.	c #FFFFA5",
"d.	c #EFEFDE",
"e.	c #CED618",
"f.	c #C6CECE",
"g.	c #BDB563",
"h.	c #6B7321",
"i.	c #ADD6C6",
"j.	c #ADAD21",
"k.	c #CED610",
"l.	c #BDE7E7",
"m.	c #ADAD29",
"n.	c #EFEF94",
"o.	c #D6D6C6",
"p.	c #A5CEC6",
"q.	c #ADDEDE",
"r.	c #C6BDC6",
"s.	c #B5DEDE",
"t.	c #948C94",
"u.	c #C6C6B5",
"v.	c #737321",
"w.	c #6B6B10",
"x.	c #BDE7DE",
"y.	c #212121",
"z.	c #ADD6CE",
"A.	c #EFF7F7",
"B.	c #C6CEC6",
"C.	c #9C9C9C",
"D.	c #CEE7E7",
"E.	c #5ABDB5",
"F.	c #8CBDBD",
"G.	c #84BDB5",
"H.	c #109494",
"I.	c #4AADA5",
"J.	c #C6E7E7",
"    . . . + . . + . . + . . + . . + . . + . . + . . + . . + . . + . . + . . + . . . @ #                                         ",
"    $ % & * * * * = * * = * * * * * = * * * * * * = * = * * * * * = * * = * * * * * $ - ; > @                                   ",
"    * = * . - - * % = = * . - - * = = = * . - - * = = = * . - - * = = = * . - - * = = * , ' * ) , !                             ",
"    * * + ~ ~ { ~ * = * + ~ ~ { - * = * + ~ ~ { - * = * + ~ ~ { - * = * + ~ ~ { - * = * ] ; % = * * , ^                         ",
"    * = . ~ ^ - ] * = * + ~ { ~ ] * = * + ~ { ~ ] * = * + ~ { ~ ] * = * + ~ { ~ ] * = * ] , * = / & * * . !                     ",
"    * = * - - - * / = = * - - - * = = = * - - - * = = = * - - - * / = = * - - - * = = = > , ( _ ( : _ < * > , [                 ",
"    * = = * * * = = = = = * * * = = = = = * * * = = = = = * * * = = = = = * * * = = = = * } | 1 | | - , ( 2 3 4                 ",
"    * = = = = = = = = = = = = = = = = = = = = = = = = = = = = = = = = = = = = 5 6 * ) = = > ^ ~ ( : * 7 8 < 9                   ",
"    * = = = = = = = = = = = = = = = = = = = = = = = = = = = = = = = = = = = 0 a b c d $ e = * e / e / = = * .                   ",
"    * = = = = = = = = = = = = = = = = = = = = = = = = = = = = = = = = = = 5 f g h i i d $ e = = = = = = = * .                   ",
"    * = = = = = = = = = = = = = = = = = = = = = = = = = = = = = = = = = = j k l m i i i d $ = = = = = = = * .                   ",
"    * = = = = = = = = = = = = = = = = = = = = = = = = = = = = = = = = = > n o p q r i i s t & = = = = = = & .                   ",
"    * = = = = = = = = = = = = = = = = = = = = = = = = = = = = = = = = ) - u v w x y z z i A & = = = = = = * .                   ",
"    * = = = = = = = = = = = = = = = = = = = = = = = = = = = = = = = B ^ C _ D E F x G G H I * = = = = = = * .                   ",
"    * = = = = = = = = = = = = = = = = = = = = = = = = = = = = = = B J K _ j L k M N O P Q j = = = = = = = * .                   ",
"    * = = = = = = = = = = = = = = = = = = = = = = = = = = = = = R S T U _ > V W X M Y k Z % = = = = = = = & .                   ",
"    * = = = = = = = = = = = = = = = = = = = = = = = = = = = = = 5 `  ...+._ 2 V u @.#.u = = = = = = = = = * .                   ",
"    * = = = = = = = = = = = = = = = = = = = = = = = = = = = = 5 $.%.&.*.=.-.;.( >.,._ = = = = = = = = = = * .                   ",
"    * = = = = = = = = = = = = = = = = = = = = = = = = = = = B $.%.'.).!.~.{.].^./._ = = = = = = = = = = = * .                   ",
"    * = = = = = = = = = = = = = = = = = = = = = = = = = = (.*._.'.).!.:.<.[.}.|._ = = = = = = = = = = = = * .                   ",
"    * = = = = = = = = = = = = = = = = = = = = = = = = = (.1.2.3.).:.!.<.4.5.6.Z R = = = = = = = = = = = = & .                   ",
"    * = = = = = = = = = = = = = = = = = = = = = = = = (.1.2._.*.7.!.<.4.8.6.Z = = = = = = = = = = = = = = * .                   ",
"    * = = = = = = = = = = = = = = = = = = = = = = = (. .2._.*.:.7.<.4.8.9.Z = = = = = = = = = = = = = = = * .                   ",
"    * = = = = = = = = = = = = = = = = = = = = = = (.%.'.0._.:.7.<.4.8.9.Z = = = = = = = = = = = = = = = = * .                   ",
"    * = = = = = = = = = = = = = = = = = = = = = B a.&.b.*.:.!.<.4.8.9.Z = = = = = = = = = = = = = = = = = & .                   ",
"    * = = = = = = = = = = = = = = = = = = = = R c.0.'.).7.7.<.4.8.9.Z = = = = = = = = = = = = = = = = = = * .                   ",
"    * = = = = = = = = = = = = = = = = = = = = (.%.&._.:.!.<.4.8.9.Z = = = = = = = = = = = = = = = = = = = * .                   ",
"    * = = = = = = = = = = = = = = = = = = = d.e.'.).!.7.<.4.8.9.Z = = = = = = = = = = = = = = = = = = = = & .                   ",
"    * = = = = = = = = = = = = = = = = = = (.e.0.[.!.:.<.4.8.9.Z = = = = = = = = = = = = = = = = = = = = = * .                   ",
"    * = = = = = = = = = = = = = = = = = (.e.}.).!.7.<.4.8.9.Z = = = = = = = = = = = = = = = = = = = = = = * .                   ",
"    * = = = = = = = = = = = = = = = = d.e.0.[.7.:.<.4.8.9.Z = = = R % e R % R % e R % = = = = = = = = = = & f.                  ",
"    * = = = = = = = = = = = = = = = (.e.}.).!.7.<.4.8.9.Z R 7 e / = 7 7 7 7 7 7 7 7 = = = = = = = = = = = * .                   ",
"    * = = = = = = = = = = = = = = B e.0.[.7.:.<.4.8.9.Z 7 7 7 7 7 7 7 / e = & % = = & = = = = = = = = = = * +                   ",
"    * = = = = = = = = = = = = = B g.}.).!.:.<.4.8.9.~.> 7 7 7 7 7 7 7 7 7 7 7 7 7 = = = = = = = = = = = = * +                   ",
"    * = = = = = = = = = = = = B g.}._.!.7.<.4.8.9.~.8 7 7 7 7 / e / e / = e / = = & = = = = = = = = = = = * .                   ",
"    * = = = = = = = = = = = B g._.[.!.7.<.4.8.9.( 7 7 7 7 7 7 7 7 7 7 7 7 7 7 = = = = = = = = = = = = = = * .                   ",
"    * = = = = = = = = = = d.g.}.[.!.7.<.4.8.h.i.8 7 7 7 7 * = R e % R e = = % R = = = = = = = = = = = = = * ,                   ",
"    * = = = = = = = = = 5 j.k.*.:.!.<.4.8.h.i.; l.8 7 7 7 7 7 7 7 7 7 = = = = = = = = = = = = = = = = = = * , @                 ",
"    * = = = = = = = = = B m.n.c.7.<.4.8.h.i.< l.8 7 7 7 * = = * = = % R = = = = = = = = = = = = = = = = = * , ~                 ",
"    * = = = = = = = = = _ o.c.!.<.4.8.h.p.q.l.; 7 7 7 7 7 7 7 7 7 7 = = = = = = = = = = = = = = = = = = = * , r.                ",
"    * = = = = = = = = * r.B J n.4.8.h.p.q.s.; l.8 7 7 = / e = = = R % = = = = = = = = = = = = = = = = = = * ; ~                 ",
"    * = = = = = = = = * t.u u.v.w.h.p.q.s.< x.8 7 7 = = = = = = = = = = = = = = = = = = = = = = = = = = = / ; #                 ",
"    * = = = = = = = = > ^.y.} t.z.z.s.< s.7 * A./ = e = = = = = = = = = = = = = = = = = = = = = = = = = = / ; !                 ",
"    * = = = = = = = = > /.} > * < > * = % e % = = = = = = = = = = = = = = = = = = = = = = = = = = = = = = & + B.                ",
"    * = = = = * * * = = * = * = = = = = = = = = = * > = = = = = = = = = = = = * = * * = * = = = = * = = = / , !                 ",
"    * = = = * + ] # _ * = > . * = = = = = = = = > C . * = = * * > * = * = = * > + ] ] _ * = = * V _ = = = * + B.                ",
"    * = = = V } C C.} . * . C.* = = = = = = = * - C > = * _ { } } { > = * > # } C.{ } } - * = * C.. * = = / ; B.                ",
"    * = = * # C.> > C.{ > { ] * = = = = = = * _ C._ = * - C # + . # > = V C.C _ * * > - } V * _ } V = = = * ; !                 ",
"    * = = * C.. * > C.# V } _ = = = = = = * V C.. = * ] C V * * * * = V C - > = = = * V } + * ] C * = = = / 2 B.                ",
"    * = = _ C.V > { C.V . C.* * = = = = = V C ] * = * C } { ] . > = * { { > = = = = = > } + > C.. * = = = / ; !                 ",
"    * = * { } C } C > > C ] = = = = = = > { { * = = * V { { } | C.* _ } V = = = = = * _ } > + } * = = = = / + #                 ",
"    * = > C.- # _ * = V } V * = = = = * { { > = = = = * * * > ] } > ] C * * = * = = * ] { > - - * = = = = / ; !                 ",
"    * * . C.> * = = * ] C * = * * = * . C V = = = * * = = = * # C.> ] { * * V { * * _ C._ V C._ * = * = = / + .                 ",
"    > * { ] = = = = > C.# > * + # > _ C.V * = = * C ] > * > . C.+ * # } _ * # | - # C.. * . } > * V . + = % ; !                 ",
"    $ > } _ = = = = _ } C.C.} } { _ C _ * = = = * C | C.C C.C._ * = > } } # # | | } _ * * { } C } } C._ = & + .                 ",
"    * * . * = = = = > ] ] . + * > + + * = = = = = > . ] ] V * * = = * _ C } } C.| } _ = * + # ] + V * * = / ; !                 ",
"    * = * = = = = = = * * = * = = * = = = = = = = = * = * = = = = = = * * * * * _ } C.> = = * = * = = = = = ; .                 ",
"    * = = = = = = = = = = = = = = = = = = = = = = = = = = = = = = = = = = = = = * + C.V = = = = = = = = = = * !                 ",
"    * = = = = = = = = = = = = = = = = = = = = = = = = = = = = = = = = = = = = = = * * = * = = = = = = = = = * !                 ",
"    A.& * % & * % & * % & * % & * % & * % & % & % & % * & % * & % * & % * & % * & % * & % * & % * & % * & % * _                 ",
"    # . . 9 f.. 9 f.. 9 f.. 9 f.. 9 f.. 9 f.. . # . . 9 f.. . # . . f.9 . f.9 . f.9 . f.9 . f.9 . f.; . ; 9 _ !                 ",
"      [ [ [ [ [ [ [ [ [ [ [ [ [ [ [ [ [ [ [ [ [ [ [ [ [ [ [ [ [ [ [ [ [ [ [ [ [ [ [ [ [ [ [ [ [ [ [ [ [ [ [ | [                 ",
"                                                                                                                                ",
"                                                                                                                                "};
