/* XPM */
static char * quit_xpm[] = {
"32 32 164 2",
"  	c None",
". 	c #8E8A7C",
"+ 	c #A07D6B",
"@ 	c #A0826B",
"# 	c #91786B",
"$ 	c #746B5B",
"% 	c #766D56",
"& 	c #8D8367",
"* 	c #CEA389",
"= 	c #D8AD8E",
"- 	c #FFC8A0",
"; 	c #E1B690",
"> 	c #D3AB89",
", 	c #B08C78",
"' 	c #8D7160",
") 	c #DFB28E",
"! 	c #EDBA95",
"~ 	c #BF9D84",
"{ 	c #DFAD8E",
"] 	c #C3A480",
"^ 	c #C7A087",
"/ 	c #C7A080",
"( 	c #B29579",
"_ 	c #C3A484",
": 	c #8E7460",
"< 	c #B19475",
"[ 	c #CFA385",
"} 	c #908367",
"| 	c #D8AD8B",
"1 	c #C89C80",
"2 	c #9E7E63",
"3 	c #91715C",
"4 	c #8E6D58",
"5 	c #8E7458",
"6 	c #916D5C",
"7 	c #EABD95",
"8 	c #B59D79",
"9 	c #B19372",
"0 	c #ECBB95",
"a 	c #7A675D",
"b 	c #AA9777",
"c 	c #AA9274",
"d 	c #F4C39B",
"e 	c #7C6652",
"f 	c #555555",
"g 	c #6B5E55",
"h 	c #6B574B",
"i 	c #7C6552",
"j 	c #5C4A40",
"k 	c #5C5140",
"l 	c #2B1C1C",
"m 	c #393223",
"n 	c #402B23",
"o 	c #59453C",
"p 	c #8E7660",
"q 	c #C0C5C0",
"r 	c #ABB2AB",
"s 	c #75756E",
"t 	c #403C3C",
"u 	c #353535",
"v 	c #242424",
"w 	c #000000",
"x 	c #0B0707",
"y 	c #1C1915",
"z 	c #6B5244",
"A 	c #A0A8A0",
"B 	c #7C837C",
"C 	c #7C817C",
"D 	c #715947",
"E 	c #D5D8D5",
"F 	c #9C9E9C",
"G 	c #353835",
"H 	c #7C614E",
"I 	c #6B6E6B",
"J 	c #979E97",
"K 	c #505250",
"L 	c #474A47",
"M 	c #6B6D6B",
"N 	c #BC9677",
"O 	c #2C2C2C",
"P 	c #8E948E",
"Q 	c #12110C",
"R 	c #755A45",
"S 	c #353635",
"T 	c #12120A",
"U 	c #342422",
"V 	c #8C765E",
"W 	c #EABA95",
"X 	c #150E0E",
"Y 	c #393232",
"Z 	c #24241C",
"` 	c #3C2E2B",
" .	c #4E4035",
"..	c #9E8669",
"+.	c #D5B28B",
"@.	c #D5AF8B",
"#.	c #402B2B",
"$.	c #604035",
"%.	c #201515",
"&.	c #4E4031",
"*.	c #72584E",
"=.	c #A0866B",
"-.	c #A78770",
";.	c #B99E7E",
">.	c #49402D",
",.	c #59443C",
"'.	c #6B5347",
").	c #60513E",
"!.	c #72594C",
"~.	c #595D59",
"{.	c #2E2E25",
"].	c #47352E",
"^.	c #5B4540",
"/.	c #595A59",
"(.	c #6B706B",
"_.	c #474B47",
":.	c #B8BBB8",
"<.	c #020007",
"[.	c #09030A",
"}.	c #100215",
"|.	c #130219",
"1.	c #17051E",
"2.	c #1B0525",
"3.	c #20052C",
"4.	c #240534",
"5.	c #270537",
"6.	c #2E0942",
"7.	c #35074A",
"8.	c #39074E",
"9.	c #5C3F6E",
"0.	c #DFE2DF",
"a.	c #0C0011",
"b.	c #1A0323",
"c.	c #2C0838",
"d.	c #3E0844",
"e.	c #4C085E",
"f.	c #57086C",
"g.	c #640F85",
"h.	c #6E0F94",
"i.	c #7C0FA5",
"j.	c #8B13C5",
"k.	c #9918D8",
"l.	c #AB18EA",
"m.	c #B846DF",
"n.	c #130713",
"o.	c #160721",
"p.	c #2B033C",
"q.	c #3A074B",
"r.	c #490C64",
"s.	c #540C6E",
"t.	c #620F85",
"u.	c #6C0F97",
"v.	c #7C17A9",
"w.	c #8717C5",
"x.	c #9513DD",
"y.	c #A71EF3",
"z.	c #B24ADF",
"A.	c #080013",
"B.	c #1A0721",
"C.	c #620F8C",
"D.	c #790FB0",
"E.	c #8B17CC",
"F.	c #9C13DD",
"G.	c #A717F3",
"                                . + @ @ + + @ # $ %             ",
"                            & * = - - - - - - - ; > ,           ",
"                        ' ) - - - - - - ! - - - - - - ~         ",
"                        { - - - ! ] ^ / ( _ / ^ : < - - [ }     ",
"                    ' { - | 1 2 3 3 4 5 6 6 5 4 / 7 - - - - { @ ",
"                    8 - 3 9 1 0 - - - - - - - - - - - - - - - - ",
"                a b - 3 - - - - - - - - - - - - - - - - - - - - ",
"                c d 7 e - - - - - - - - - - - - - - - - - - - - ",
"f f f f f f f f f f f g h i j k l l m n o p ! - - - - - - - - - ",
"q q q q q q q q q q q r s t u u v w w w x y z ! - - - - - - - - ",
"A A A A r q q q q q q q q q B C u w w w w w w D - - - - - - - - ",
"A A A A q E q q q q q q q F G A u w w w w w w w H ! - - - - - - ",
"A A A A q q v I A A J K L M G A u w w w w w w w w w N d - - - - ",
"A A A A q q I v C A K O P M G A u w w w w w w w w w Q R / 7 - - ",
"A A A A q q A C v u S P A M G A u w w w w w w w w w w T U V 7 W ",
"A A A A q q A A u w M A A M G A u w w w X Y w w w Z `  .V ..+.@.",
"A A A A q q J K S M v I A M G A u w w w #.  $.%.y y &.*.h =.-.;.",
"A A A A q q K O P A I v C M G A u l w w w             >.,.'.).!.",
"A A A A q q L P A A A C ~.M G A u {.].x                     ^.^.",
"A A A A q F M M M M M M M /.G A u                               ",
"A A A A B G G G G G G G G G ~.A u                               ",
"A A A A A A A A A A A A A A A A u                               ",
"u u u u u u u u u u u u u u u u v                               ",
"(.(.(.(.(.(.(.(.(.(.(.(.(.(.(.(._.                              ",
"A A A A A A A A A A A A A A A A (.                              ",
"A A A A A A A A A A A A A A A A (.                              ",
"A A A A A A A A A A A A A A A A (.                              ",
"M M M M M M M M M M M M M :.A A (.                              ",
"<.[.}.|.1.2.3.4.5.6.7.8.9.0.A A (.                              ",
"a.b.c.d.e.f.g.h.i.j.k.l.m.0.A A (.                              ",
"n.o.p.q.r.s.t.u.v.w.x.y.z.0.A A (.                              ",
"A.B.p.q.r.s.C.u.D.E.F.G.z.0.A A (.                              "};
