/* XPM */
static char * quit_mini_xpm[] = {
"29 28 221 2",
"  	c None",
". 	c #565253",
"+ 	c #A68A72",
"@ 	c #AB8A71",
"# 	c #AB8871",
"$ 	c #AB8771",
"% 	c #AB8971",
"& 	c #917C6C",
"* 	c #7D6E5A",
"= 	c #755E51",
"- 	c #C5A181",
"; 	c #E4B393",
"> 	c #FBC59E",
", 	c #FEC79F",
"' 	c #FFC8A0",
") 	c #FBC59D",
"! 	c #F0BD97",
"~ 	c #E3B692",
"{ 	c #7A5E52",
"] 	c #957562",
"^ 	c #FEC89F",
"/ 	c #F8C39C",
"( 	c #F7C39C",
"_ 	c #F7C39B",
": 	c #DBAC8B",
"< 	c #F6C19B",
"[ 	c #F1BD98",
"} 	c #FAC59D",
"| 	c #F4C09B",
"1 	c #836659",
"2 	c #9D7F6C",
"3 	c #F5C09A",
"4 	c #AB846B",
"5 	c #846E55",
"6 	c #7F6657",
"7 	c #806B53",
"8 	c #806956",
"9 	c #806857",
"0 	c #836E5A",
"a 	c #E4BA92",
"b 	c #DDB38F",
"c 	c #9B806C",
"d 	c #372E27",
"e 	c #9B8367",
"f 	c #F5BF9A",
"g 	c #C79D7D",
"h 	c #9F8169",
"i 	c #A4856C",
"j 	c #F1BC97",
"k 	c #F0BC97",
"l 	c #F1BD97",
"m 	c #F2BE98",
"n 	c #FCC59E",
"o 	c #F3BF99",
"p 	c #82735E",
"q 	c #EABC95",
"r 	c #B0876F",
"s 	c #D5A885",
"t 	c #84725B",
"u 	c #ECBE96",
"v 	c #8B725A",
"w 	c #6A6A6A",
"x 	c #72665D",
"y 	c #705D4E",
"z 	c #665143",
"A 	c #463630",
"B 	c #4A3E33",
"C 	c #160E0E",
"D 	c #322A1F",
"E 	c #382520",
"F 	c #4C3A32",
"G 	c #8C745F",
"H 	c #EDB995",
"I 	c #AFB6AF",
"J 	c #A2AAA2",
"K 	c #7B7D77",
"L 	c #575957",
"M 	c #545654",
"N 	c #424242",
"O 	c #060606",
"P 	c #000000",
"Q 	c #040202",
"R 	c #0F0D0B",
"S 	c #523F34",
"T 	c #EEBB96",
"U 	c #FFC79F",
"V 	c #9FA89F",
"W 	c #A0A8A0",
"X 	c #CFD3CF",
"Y 	c #D7DAD7",
"Z 	c #A0A3A0",
"` 	c #7E847E",
" .	c #6A6D6A",
"..	c #080808",
"+.	c #6D5644",
"@.	c #F3BE98",
"#.	c #D9DCD9",
"$.	c #737873",
"%.	c #848984",
"&.	c #9FA79F",
"*.	c #7D827D",
"=.	c #797F79",
"-.	c #3D3E3D",
";.	c #717771",
">.	c #777B77",
",.	c #3A2C25",
"'.	c #B78F73",
").	c #A0A7A0",
"!.	c #7E837E",
"~.	c #2D2D2D",
"{.	c #767B76",
"].	c #6E726E",
"^.	c #303130",
"/.	c #838883",
"(.	c #090705",
"_.	c #77654D",
":.	c #DAA987",
"<.	c #757975",
"[.	c #333333",
"}.	c #565856",
"|.	c #313231",
"1.	c #7C817C",
"2.	c #080604",
"3.	c #342720",
"4.	c #8D745E",
"5.	c #E8BB94",
"6.	c #F5C19B",
"7.	c #585A58",
"8.	c #656865",
"9.	c #0F0A0A",
"0.	c #2E2828",
"a.	c #010101",
"b.	c #322A25",
"c.	c #393229",
"d.	c #74624E",
"e.	c #947960",
"f.	c #CAAB85",
"g.	c #D1AC88",
"h.	c #636663",
"i.	c #303030",
"j.	c #717471",
"k.	c #2A2A2A",
"l.	c #6D706D",
"m.	c #211616",
"n.	c #38251F",
"o.	c #100D0C",
"p.	c #251D1A",
"q.	c #383226",
"r.	c #4E3A34",
"s.	c #6A544B",
"t.	c #947D64",
"u.	c #9D7F69",
"v.	c #B99E7F",
"w.	c #6F736F",
"x.	c #353635",
"y.	c #858B85",
"z.	c #7F847F",
"A.	c #343534",
"B.	c #1E1917",
"C.	c #261B1A",
"D.	c #42352C",
"E.	c #4F3E34",
"F.	c #5C4C3D",
"G.	c #654E43",
"H.	c #D8DBD8",
"I.	c #7B817B",
"J.	c #868C86",
"K.	c #99A099",
"L.	c #828782",
"M.	c #7F857F",
"N.	c #3D3D3D",
"O.	c #10100E",
"P.	c #3C3427",
"Q.	c #1D1313",
"R.	c #787A78",
"S.	c #272727",
"T.	c #1B1B1B",
"U.	c #959D95",
"V.	c #929A92",
"W.	c #9CA39C",
"X.	c #4C4D4C",
"Y.	c #5D625D",
"Z.	c #090A09",
"`.	c #101110",
" +	c #A4ABA4",
".+	c #515351",
"++	c #D6D8D6",
"@+	c #080011",
"#+	c #1B0623",
"$+	c #2C0738",
"%+	c #3C0647",
"&+	c #480B5D",
"*+	c #530B6E",
"=+	c #600D86",
"-+	c #6C0D93",
";+	c #7D13B0",
">+	c #8E15C8",
",+	c #9E15D8",
"'+	c #A562C3",
")+	c #120512",
"!+	c #190526",
"~+	c #2E063D",
"{+	c #420753",
"]+	c #4E0C68",
"^+	c #5B0C79",
"/+	c #690F92",
"(+	c #7714A2",
"_+	c #8714C0",
":+	c #9415DA",
"<+	c #AB1DF3",
"[+	c #AD63CD",
"}+	c #090012",
"|+	c #1D0526",
"1+	c #2C053D",
"2+	c #420755",
"3+	c #5B0C7E",
"4+	c #690E93",
"5+	c #760EA7",
"6+	c #8814C9",
"7+	c #9A12DC",
"8+	c #A917F4",
"                            . + @ # $ $ % & *             ",
"                        = - ; > , , , , ' ) ! ~ {         ",
"                      ] ) ^ , / ( _ : ( ( < [ } | 1       ",
"                    2 , , 3 4 5 6 7 8 9 7 6 0 a , , b c d ",
"                  e f g h i j ! k l j j l m ( , , , , n o ",
"                p q r s ) , , , , , , , ' , , , , , , , , ",
"              t u u v , , , , , , , , , ' , , , , , , , , ",
"w w w w w w w w w w x y z A B C D E F G H , , , , , , , , ",
"I I I I I I I I I I J K L M N O P P Q R S T U , U U , , , ",
"V V V W X Y Y Y Y Y Y Y Z `  ...P P P P P +.@., , U , , , ",
"V V V W #.$.%.&.&.&.*.=.-.;.>...P P P P P P ,.'., , , , , ",
"W ).&.W #.!.~.{.&.].^./.-.;.>...P P P P P P P (._.:.u , , ",
"W V &.W #.W <.[.}.|.1.&.-.;.>...P P P P P P P P 2.3.4.5.6.",
"V V V W #.W &.7.P 8.W &.-.;.>...P P 9.0.P P a.b.c.d.e.f.g.",
"W W V W #.W h.i.j.k.l.&.-.;.>...P P m.  n.o.p.q.r.s.t.u.v.",
"W V ).W #.w.x.y.&.z.A.{.-.;.>.B.C.P P             D.E.F.G.",
"W W W W H.I.J.K.K.K.L.M.N.;.>.O.P.Q.                      ",
"&.W &.W R.S.S.S.S.S.S.S.T.;.>...                          ",
"W V &.W U.V.V.V.V.V.V.V.V.W.>...                          ",
"}.}.}.}.}.}.}.}.}.}.}.}.}.}.X.O                           ",
"Y.Y.Y.Y.Y.Y.Y.Y.Y.Y.Y.Y.Y.Y.Y.Z.                          ",
"W V ).W &.W &.&.&.&.W &.&.&.&.`.                          ",
"W V V W &.W &.&.&.&.W &.&.&.&.`.                          ",
"K.K.K.K.K.K.K.K.K.K.K.K. +&.&.`.                          ",
"S.S.S.S.S.S.S.S.S.S.S..+++&.&.`.                          ",
"@+#+$+%+&+*+=+-+;+>+,+'+#.&.&.`.                          ",
")+!+~+{+]+^+/+(+_+:+<+[+#.&.&.`.                          ",
"}+|+1+2+]+3+4+5+6+7+8+[+#.&.&.`.                          "};
