/* XPM */
static char * rebuild_xpm[] = {
"25 25 275 2",
"  	c None",
". 	c #222222",
"+ 	c #343434",
"@ 	c #141414",
"# 	c #6F6F6F",
"$ 	c #C9C9B7",
"% 	c #F6F6DC",
"& 	c #505050",
"* 	c #7F7F7A",
"= 	c #000000",
"- 	c #7D7D7D",
"; 	c #B7B7B0",
"> 	c #FEFED5",
", 	c #FEFEC8",
"' 	c #FEFEC1",
") 	c #B7B799",
"! 	c #787878",
"~ 	c #F9F9CF",
"{ 	c #FFFFC8",
"] 	c #FFFFD5",
"^ 	c #565654",
"/ 	c #DFDFD9",
"( 	c #F7F7CC",
"_ 	c #FFFFC6",
": 	c #F5F5B8",
"< 	c #E7E7AD",
"[ 	c #49492F",
"} 	c #3F3F11",
"| 	c #888800",
"1 	c #515116",
"2 	c #E7E7AE",
"3 	c #4F4F4F",
"4 	c #E9E9D7",
"5 	c #FFFFDD",
"6 	c #FFFFC0",
"7 	c #B1B185",
"8 	c #78784E",
"9 	c #272700",
"0 	c #727200",
"a 	c #7F7F00",
"b 	c #898900",
"c 	c #A5A500",
"d 	c #848400",
"e 	c #2F2F00",
"f 	c #80804E",
"g 	c #FFFFE9",
"h 	c #FEFEC3",
"i 	c #B7B789",
"j 	c #777759",
"k 	c #454502",
"l 	c #5C5C00",
"m 	c #8E8E00",
"n 	c #A0A000",
"o 	c #9E9E00",
"p 	c #7C7C00",
"q 	c #4B4B02",
"r 	c #77775A",
"s 	c #FFFFC3",
"t 	c #6F6F60",
"u 	c #1B1B1B",
"v 	c #BDBDB2",
"w 	c #EDEDB8",
"x 	c #3F3F2F",
"y 	c #505016",
"z 	c #606000",
"A 	c #979700",
"B 	c #989800",
"C 	c #A9A900",
"D 	c #9C9C00",
"E 	c #9D9D00",
"F 	c #A7A700",
"G 	c #6C6C00",
"H 	c #6A6A16",
"I 	c #EDEDB2",
"J 	c #BDBD8E",
"K 	c #1B1B14",
"L 	c #24241C",
"M 	c #3B3B26",
"N 	c #646400",
"O 	c #808000",
"P 	c #868600",
"Q 	c #959500",
"R 	c #A4A400",
"S 	c #A3A300",
"T 	c #919100",
"U 	c #737300",
"V 	c #24241B",
"W 	c #63634A",
"X 	c #92926E",
"Y 	c #67674E",
"Z 	c #585824",
"` 	c #4B4B00",
" .	c #7E7E00",
"..	c #9F9F00",
"+.	c #929200",
"@.	c #5A5A00",
"#.	c #5B5B00",
"$.	c #696900",
"%.	c #555500",
"&.	c #6D6D24",
"*.	c #858583",
"=.	c #5F5F48",
"-.	c #818161",
";.	c #9F9F77",
">.	c #333303",
",.	c #505000",
"'.	c #8B8B00",
").	c #4D4D00",
"!.	c #4A4A47",
"~.	c #373737",
"{.	c #0F0F0E",
"].	c #9F9F78",
"^.	c #666606",
"/.	c #DBDBD6",
"(.	c #D7D7A1",
"_.	c #828262",
":.	c #37372A",
"<.	c #C2C292",
"[.	c #84845D",
"}.	c #23230B",
"|.	c #6A6A01",
"1.	c #787800",
"2.	c #4A4A03",
"3.	c #55554F",
"4.	c #7E7E7F",
"5.	c #777777",
"6.	c #171717",
"7.	c #33331E",
"8.	c #67670F",
"9.	c #999900",
"0.	c #9A9A00",
"a.	c #4D4D3A",
"b.	c #757558",
"c.	c #B7B78A",
"d.	c #54543F",
"e.	c #0A0A0A",
"f.	c #515151",
"g.	c #868687",
"h.	c #838385",
"i.	c #585858",
"j.	c #161610",
"k.	c #C0C000",
"l.	c #A6A600",
"m.	c #505C31",
"n.	c #2F3030",
"o.	c #CBCB98",
"p.	c #7F7F5F",
"q.	c #7B7B5E",
"r.	c #878788",
"s.	c #818183",
"t.	c #5A5A5A",
"u.	c #A8A800",
"v.	c #606E3B",
"w.	c #A2C1C1",
"x.	c #5C5F5F",
"y.	c #FEFEBF",
"z.	c #8C8C69",
"A.	c #5B5B58",
"B.	c #5D5D5E",
"C.	c #323232",
"D.	c #767604",
"E.	c #8F8F00",
"F.	c #5A7777",
"G.	c #C0D3D3",
"H.	c #111111",
"I.	c #5F5F47",
"J.	c #717171",
"K.	c #575757",
"L.	c #555555",
"M.	c #3F3D3A",
"N.	c #6B690C",
"O.	c #B7B700",
"P.	c #808309",
"Q.	c #698888",
"R.	c #ABD0D0",
"S.	c #9FCACA",
"T.	c #1D2727",
"U.	c #617676",
"V.	c #202727",
"W.	c #6D6D6F",
"X.	c #3F3730",
"Y.	c #9B6933",
"Z.	c #A0825D",
"`.	c #71700E",
" +	c #668181",
".+	c #9ED4D4",
"++	c #56C0C0",
"@+	c #73C4C4",
"#+	c #78E7E7",
"$+	c #34A8A8",
"%+	c #001A1A",
"&+	c #BEBE8F",
"*+	c #393933",
"=+	c #6B6302",
"-+	c #A0560D",
";+	c #A56F37",
">+	c #728D89",
",+	c #A3D3D3",
"'+	c #5EC0C0",
")+	c #59C0C0",
"!+	c #075858",
"~+	c #004E4E",
"{+	c #002222",
"]+	c #CBCB99",
"^+	c #292928",
"/+	c #353532",
"(+	c #716902",
"_+	c #72867D",
":+	c #AFCBCB",
"<+	c #45C0C0",
"[+	c #60BDBD",
"}+	c #0F5652",
"|+	c #7A7D03",
"1+	c #D2D2A7",
"2+	c #C9C997",
"3+	c #7F7F18",
"4+	c #BFBF00",
"5+	c #848609",
"6+	c #6BB3B3",
"7+	c #1D6660",
"8+	c #76740D",
"9+	c #646409",
"0+	c #E1E165",
"a+	c #F1F195",
"b+	c #DFDF60",
"c+	c #6A8680",
"d+	c #1D5B4C",
"e+	c #B77B3D",
"f+	c #A1845E",
"g+	c #5A5907",
"h+	c #3B3B00",
"i+	c #8C8C1F",
"j+	c #D3D33B",
"k+	c #FDFDBB",
"l+	c #9D9D60",
"m+	c #6F8E7E",
"n+	c #A7CECE",
"o+	c #766D00",
"p+	c #A1570C",
"q+	c #FFAA56",
"r+	c #A08764",
"s+	c #090900",
"t+	c #111100",
"u+	c #A9A911",
"v+	c #CBCB4E",
"w+	c #F7F7A7",
"x+	c #FBFBBA",
"y+	c #ADB086",
"z+	c #6E8B88",
"A+	c #A9CDCD",
"B+	c #42C0C0",
"C+	c #64B6B6",
"D+	c #074E4E",
"E+	c #757903",
"F+	c #0D0D00",
"G+	c #0B0500",
"H+	c #A05305",
"I+	c #F9A654",
"J+	c #A28864",
"K+	c #333300",
"L+	c #7D7D00",
"M+	c #C9C962",
"N+	c #354747",
"O+	c #9EDFDF",
"P+	c #52BFBF",
"Q+	c #66B5B5",
"R+	c #A25407",
"S+	c #414100",
"T+	c #173D3D",
"U+	c #29CDCD",
"V+	c #3CBFBF",
"W+	c #054D4D",
"X+	c #37291A",
"Y+	c #002929",
"Z+	c #37200A",
"                  . +         .                   ",
"              @ # $ % &     * $ # @               ",
"          = - ; > , ' ) = ! ~ { ] ; - =           ",
"      @ ^ / ( _ : < [ } | 1 [ 2 : _ ( / ^ @       ",
"  . 3 4 5 6 6 7 8 9 0 a b c d e f 7 6 6 5 4 3 .   ",
"= # g h 6 i j k l a a a m n o n p q r i 6 s 5 t = ",
"  u v w x y z a a a a a A B C D E F G H x I J K   ",
"= = L M N 0 O O a a a a P F Q R S Q C T U M V = = ",
"  = W X Y Z `  .a a a a ..+.G @.#.$.%.&.Y X W =   ",
"    = *.=.-.;.>.,.a a a '.).!.~.~.{.].-.=.^.=     ",
"    = /.(._.:.<.[.}.|.1.2.3.4.5.5.6.7.8.9.0.=     ",
"    = / 6 6 6 a.b.c.d.e.f.g.h.i.i.j.k.l.m.n.=     ",
"    = / 6 6 6 6 o.p.q.f.r.s.t.i.i.j.u.v.w.x.      ",
"    = / 6 6 6 6 y.z.A.g.s.B.i.i.C.D.E.F.G.H.    = ",
"    = / 6 6 6 6 y.I.J.h.t.K.L.M.N.O.P.Q.R.S.T.U.V.",
"    = / 6 6 6 6 y.I.W.K.K.K.X.Y.Z.`. +.+++@+#+$+%+",
"    = / 6 6 6 6 y.&+*+K.K.C.=+-+;+>+,+'+)+!+~+{+  ",
"    = / 6 6 6 6 y.y.]+^+/+D.O.(+_+:+<+[+}+|+=     ",
"    = 1+6 6 6 6 y.y.y.2+3+4+5+ +,+<+6+7+8+S =     ",
"    = 9+0+a+6 6 y.y.y.y.b+a c+.+'+[+d+e+f+g+=     ",
"        h+i+j+k+y.y.y.y.l+m+n+++)+}+o+p+q+r+=     ",
"          s+t+u+v+w+x+y+z+A+B+C+D+E+F+G+H+I+J+    ",
"              = K+L+M+N+O+P+Q+~+= =       R+q+Z.  ",
"                    S+T+U+V+W+              -+q+X+",
"                        Y+Y+                  Z+  "};
