/* XPM */
static char * sessionmonitor_xpm[] = {
"64 64 182 2",
"  	c None",
". 	c #000000",
"+ 	c #0000FF",
"@ 	c #00FF00",
"# 	c #08294A",
"$ 	c #082952",
"% 	c #08424A",
"& 	c #104252",
"* 	c #10425A",
"= 	c #184A5A",
"- 	c #211808",
"; 	c #214A63",
"> 	c #215A6B",
", 	c #295A73",
"' 	c #315A63",
") 	c #316373",
"! 	c #31638C",
"~ 	c #394A21",
"{ 	c #396373",
"] 	c #424208",
"^ 	c #424A10",
"/ 	c #424A21",
"( 	c #425231",
"_ 	c #42524A",
": 	c #426B84",
"< 	c #42738C",
"[ 	c #4A4A08",
"} 	c #4A634A",
"| 	c #4A6363",
"1 	c #4A738C",
"2 	c #524A00",
"3 	c #525A52",
"4 	c #52635A",
"5 	c #52636B",
"6 	c #5A7B94",
"7 	c #5A8C94",
"8 	c #636B63",
"9 	c #638484",
"0 	c #6B7B4A",
"a 	c #6B7B6B",
"b 	c #6B8494",
"c 	c #739494",
"d 	c #846B00",
"e 	c #847310",
"f 	c #848C84",
"g 	c #849C9C",
"h 	c #8C7B73",
"i 	c #8C848C",
"j 	c #8C8494",
"k 	c #8C8C9C",
"l 	c #8CA59C",
"m 	c #948C94",
"n 	c #948C9C",
"o 	c #949494",
"p 	c #94AD94",
"q 	c #9C8CA5",
"r 	c #9C949C",
"s 	c #9C94A5",
"t 	c #9C9C9C",
"u 	c #9C9CA5",
"v 	c #9C9CAD",
"w 	c #9CA59C",
"x 	c #9CA5AD",
"y 	c #9CADBD",
"z 	c #A594A5",
"A 	c #A59CA5",
"B 	c #A59CAD",
"C 	c #A59CB5",
"D 	c #A5ADAD",
"E 	c #A5B59C",
"F 	c #A5B5C6",
"G 	c #AD94AD",
"H 	c #AD9CA5",
"I 	c #AD9CAD",
"J 	c #ADA5B5",
"K 	c #ADAD73",
"L 	c #ADB5AD",
"M 	c #B59CAD",
"N 	c #B5A531",
"O 	c #B5A542",
"P 	c #B5A5BD",
"Q 	c #B5ADAD",
"R 	c #B5ADB5",
"S 	c #B5BDBD",
"T 	c #B5C69C",
"U 	c #B5C6AD",
"V 	c #BDA508",
"W 	c #BDA5B5",
"X 	c #BDB5B5",
"Y 	c #BDB5BD",
"Z 	c #BDB5C6",
"` 	c #BDBDBD",
" .	c #BDBDCE",
"..	c #BDC6BD",
"+.	c #BDCEAD",
"@.	c #BDCEBD",
"#.	c #BDCEC6",
"$.	c #BDCECE",
"%.	c #C6B5C6",
"&.	c #C6BDC6",
"*.	c #C6BDCE",
"=.	c #C6C6C6",
"-.	c #C6CEBD",
";.	c #C6CEC6",
">.	c #C6CECE",
",.	c #C6CEDE",
"'.	c #C6D6AD",
").	c #CEBDCE",
"!.	c #CEC6C6",
"~.	c #CEC6D6",
"{.	c #CECEB5",
"].	c #CECED6",
"^.	c #CECEDE",
"/.	c #CED6AD",
"(.	c #CED6CE",
"_.	c #CED6D6",
":.	c #CED6DE",
"<.	c #CEDED6",
"[.	c #CEDEDE",
"}.	c #D6CECE",
"|.	c #D6D69C",
"1.	c #D6D6E7",
"2.	c #D6DEAD",
"3.	c #D6E7DE",
"4.	c #D6E7E7",
"5.	c #DEDEDE",
"6.	c #DEDEEF",
"7.	c #DEE7AD",
"8.	c #DEE7DE",
"9.	c #DEE7E7",
"0.	c #DEE7EF",
"a.	c #DEEFE7",
"b.	c #DEEFEF",
"c.	c #E7CE10",
"d.	c #E7DE5A",
"e.	c #E7E7AD",
"f.	c #E7E7B5",
"g.	c #E7E7C6",
"h.	c #E7EFAD",
"i.	c #E7EFBD",
"j.	c #E7EFDE",
"k.	c #E7EFEF",
"l.	c #E7F7EF",
"m.	c #EFDE29",
"n.	c #EFEF9C",
"o.	c #EFEFAD",
"p.	c #EFEFB5",
"q.	c #EFEFBD",
"r.	c #EFEFE7",
"s.	c #EFEFEF",
"t.	c #EFF7B5",
"u.	c #EFF7BD",
"v.	c #EFF7C6",
"w.	c #EFF7CE",
"x.	c #EFF7EF",
"y.	c #EFF7F7",
"z.	c #EFFFF7",
"A.	c #EFFFFF",
"B.	c #F7DE18",
"C.	c #F7DE42",
"D.	c #F7DE52",
"E.	c #F7E739",
"F.	c #F7E74A",
"G.	c #F7E752",
"H.	c #F7E763",
"I.	c #F7E76B",
"J.	c #F7E784",
"K.	c #F7E78C",
"L.	c #F7EF84",
"M.	c #F7EFA5",
"N.	c #F7F7AD",
"O.	c #F7F7FF",
"P.	c #F7FFFF",
"Q.	c #FFD618",
"R.	c #FFD621",
"S.	c #FFDE29",
"T.	c #FFDE31",
"U.	c #FFDE39",
"V.	c #FFE700",
"W.	c #FFF7B5",
"X.	c #FFFFBD",
"Y.	c #FFFFFF",
"                                                                                                                                ",
"s.s.s.s.s.r.r.s.8.s.s.x.s.r.r.0.s.r.x.s.s.s.j.s.s.s.s.s.r.r.s.s.r.r.s.s.s.r.r.s.s.s.x.s.s.s.s.s.b.b.b.b.b.6.0.s.b.0.6.6.0.0.0.6.",
"s.b.x.b.s.b.s.b.s.s.b.s.b.s.b.s.s.b.s.l.b.b.s.0.s.s.l.b.b.s.0.s.b.x.s.b.b.s.j.0.s.b.r.a.8.a.8.a.0.j.8.0.8.[.5.8.8.3.5.:.5.3.8.6.",
"x.l.b.r.a.b.b.b.l.b.a.a.b.l.b.b.b.b.b.l.b.b.j.b.b.b.l.b.8.b.b.b.l.b.b.b.8.b.b.b.a.j.8.8.a.8.8.5.3.[.3.:.:.:.:.:.:.(.:.:.:.(.[.6.",
"x.b.l.b.b.0.b.l.b.b.b.b.Y.b.l.a.a.0.b.x.b.j.b.0.b.l.b.b.a.a.b.b.l.b.b.b.b.0.a.8.a.8.8.5.3.3.:.:.[.<.:.:.(.$.$.$.$.$.$.]...$.(.:.",
"s.b.b.a.a.b.s.b.b.b.b.b.s.b.b.b.b.b.s.s.b.b.b.b.s.s.b.b.b.b.s.b.b.b.b.b.j.0.0.8.8.3.5.5.3.[.(.:.(.(.(.(.$.$.$.]...@.@. .).$.$.$.",
"s.b.b.b.b.b.s.b.b.b.b.b.s.s.b.b.b.b.s.b.b.b.b.b.s.b.b.0.b.b.b.s.b.b.j.b.b.0.8.8.8.8.5.5.:.[.[.:.(.(.(.(.(.(.$.(...@.Y  .).~. .L ",
"s.b.0.b.l.b.a.r.b.b.x.l.l.s.b.Y.l.x.x.s.b.b.l.x.x.s.b.l.b.x.x.s.b.s.b.b.b.b.a.8.0.a.8.5.8.[.[.[.:.[.(.:.<.(.$.(.$. .Y  .).~.Y I ",
"s.b.b.b.b.l.b.l.x.x.A.x.x.x.x.O.l.A.x.x.x.O.x.z.x.x.x.x.x.A.x.x.O.z.x.x.x.l.l.b.s.a.a.0.8.8.3.8.3.5.3.<.[.3.(.$... .Y  .).}.Y P ",
"s.b.s.s.b.b.b.l.b.l.b.b.l.b.l.b.l.b.b.l.b.b.l.b.l.b.b.l.b.l.b.b.l.b.b.l.b.b.l.b.l.b.l.b.l.b.b.l.b.l.b.a.j.8.6...Y ....Y ).$. .J ",
"x.b.l.j.b.b.8.6.6.6.0.6.6.6.6.6.6.0.6.6.0.6.6.6.6.b.0.6.6.6.0.6.6.0.6.6.0.6.6.6.6.6.6.6.6.0.6.6.0.6.@.@.@.@.~.!...Y ..Y $...@.J ",
"s.l.b.a.a.x.:.. . . . . . . . - . . . . . . . . . . . . . . . . . . . . . . . . . . . . . . . . . . . . . . 8 I ....Y  .......J ",
"s.b.b.b.b.x.].3 - 2 d d d d d d d d d d d d d d d d d d d d d d d d d d e 0 d e 0 0 0 0 0 0 0 0 0 0 0 0 0 0 t Y... . .Y ....S J ",
"s.b.b.b.b.x.$.4 [ V c.c.c.c.m.c.c.c.c.c.c.m.c.c.c.m.c.c.c.c.c.c.c.c.c.d.d.d.d.d.'./.|.7.|.'.|.7.|.|.7.|.|.7.g.A.^.Y Y Y Y Y J v ",
"s.b.b.b.l.z.(.3 ] V V.m.d.J.J.L.J.L.n.J.J.J.J.L.J.J.J.n.J.J.L.L.J.L.L.J.|.7.K.7.o.q.u.o.u.t.t.W.X.t.t.X.t.X.w.Y.$. .Y Y Y Y I v ",
"s.b.b.b.x.x.$.4 ] V c.d.n.u.i.h.u.h.i.h.u.h.i.h.u.h.h.i.h.h.h.h.t.h.7.+.+.T U +.+.U +.+.U 2.t.o.t.o.o.o.o.o.w.Y.$.Y J Y J P v v ",
"s.b.b.s.s.z.$.| ] V E.K.h.h.o.o.h.o.o.o.o.o.o.o.o.o.o.o.o.o.o.q.o.7.+.g 7 b c 6 c b b 7 f T /.o.o.o.o.o.o.o.w.Y...J I J I G v v ",
"s.b.s.b.s.x.$.| ] V m.H.I.d.H.d.H.d.H.d.H.d.H.d.H.d.D.I.J.h.o.7.+.E g : > > , , , > , , < c E T /.o.o.o.o.o.g.Y...I J G I G v v ",
"x.l.b.a.a.x.$.5 [ V B.m.R.R.R.m.R.R.R.m.R.R.R.m.R.R.T.m.d.n.7.T c 6 ) ; & & * & * & * ; { 1 6 b E 7.o.o.o.o.w.Y...P Y J L W G v ",
"x.b.l.b.b.x.$.4 / N C.C.D.C.C.C.D.C.G.C.D.C.C.C.D.C.C.C.I.n.U b ) ; ; & $ $ $ & $ $ $ & ; > , ! b T /.o.o.o.u.Y.$.J L W J Y P v ",
"s.b.b.b.b.x.$.4 / K K.h.n.7.n.7.n.n.7.n.n.7.n.7.n.n.K.7.n.+.g { * $ & $ & & $ ; $ & & $ ; & ; , : g +.o.o.o.w.Y. .J x J W G I v ",
"s.0.b.b.l.x.$.4 ^ O 7.t.i.i.i.i.q.g.i.i.i.q.i.i.i.7.q.o./.l | * $ $ ; $ & $ ; & & & $ ; $ $ & ; , b +.o.o.o.q.Y...L I J I J I v ",
"s.b.b.b.l.z.$.4 ] V D.K.K.K.K.K.K.K.K.K.K.K.K.K.K.n.7.2.E < ; $ & & & $ & ; & & * $ & $ & $ $ & ; 6 E 7.o.o.w.Y...I J G I I J v ",
"s.b.b.s.Y.x.$.4 ] V c.C.m.C.E.C.m.d.T.m.d.m.C.m.C.H.|.E 7 ! ; $ & & & * $ & * $ & ; & & & ; $ & ' < g E 7.o.w.Y.Y G G P I I P I ",
"x.b.s.b.s.x.$.| ^ O R.T.m.R.m.R.m.R.m.R.R.m.R.R.m.d./.c : > ; $ & ; $ & ; $ & ; $ & ; $ & $ $ ; ; { 1 p 7.o.w.Y.Y I G W G P P v ",
"s.l.b.r.a.x.$.4 / O J.I.d.I.I.d.I.I.I.I.I.d.I.I.I.K.|.c , ; & * $ & & & $ & & & ; $ & ; & & & $ ; ; { g 7.o.w.Y.Y J G G W P I v ",
"s.b.b.b.b.x.$.4 / O 7.t.q.7.i.7.h.7.i.7.i.7.i.h.q.t.'.c , & $ & & & ; $ & ; & $ & ; $ & $ ; $ & $ * { p 7.o.w.Y...v G G I I v v ",
"s.b.b.a.a.x.].4 ^ O H.h.o.o.o.o.o.o.o.o.o.o.o.o.o.o./.g ' $ $ ; & $ & ; $ & $ ; $ & ; $ & & & $ $ ; : t 7.t.g.Y...G I r H G v v ",
"s.b.b.b.l.x.$.4 [ V m.D.d.D.d.D.d.D.d.D.d.D.d.D.d.L.|.c , * $ & & ; $ & ; $ & * & $ & ; & * $ & $ ' f +.o.o.u.Y.Y G v r r G v v ",
"s.b.b.b.l.z.$.4 ] V B.R.R.T.R.R.R.T.R.R.R.T.R.R.m.H.|.c , * $ & & * $ & & & ; $ ; & & & $ & ; $ & | p /.o.o.w.Y.Y v r v r r v v ",
"s.b.b.Y.b.x.$.4 / N d.G.C.C.D.C.D.C.D.C.D.C.G.C.d.H.'.c , * $ & $ ; & & & $ * & $ & ; $ & & & $ $ ' f |.h.t.w.Y.Y r r v v r v v ",
"s.b.s.b.s.x.$.| / K n.n.7.h.n.7.n.n.7.n.n.7.n.n.n.o.|.c > $ & & ; $ & * & ; $ & ; $ & ; & * $ & $ ; 1 p /.h.w.O.Y r r r v v r G ",
"x.l.b.r.b.x.$.4 / O K.i.u.i.q.q.q.i.i.i.q.q.q.g.u.o./.c ' $ $ & & & $ ; $ & ; $ & ; $ & $ ; & $ & ; , 6 t 2.u.Y.Y v r r r r v v ",
"x.b.l.b.b.x.$.4 ^ V C.J.K.K.J.K.K.K.K.K.K.K.K.J.K.n.|.p < ; & $ & & ; $ & & & ; $ & ; $ ; $ & & $ ; , < b U w.Y.Y r r r r r r v ",
"s.b.b.a.a.x.}.5 [ V c.U.m.U.m.m.U.m.U.m.m.U.m.m.T.I.2.+.g { * $ & $ & $ ; & $ & * & & ; & & $ ; $ ; , ! 7 T g.O.Y v q r r r v v ",
"s.b.b.b.l.x.$.4 ^ O T.T.m.m.T.R.m.U.m.R.m.R.U.R.m.d.n.7.E < ; ; & $ & & $ & ; $ & ; $ & $ ; & $ & & , ! 9 U g.Y.Y r r r r r r G ",
"s.b.0.b.l.z.$.4 / O K.J.J.J.J.J.J.J.J.J.J.J.J.J.J.n.7.7.T 6 { ; * & & $ ; $ & ; $ & * & & $ & $ & ; { : b +.g.Y.Y r r r r r r q ",
"s.b.b.b.x.x.$.4 / O 7.h.q.i.i.i.7.i.i.i.i.i.7.7.i.o.q.o.U l 1 { ; ; $ ; $ & $ & ; $ ; & * $ & & ; { 9 g E +.w.Y.Y r r q r q r r ",
"s.b.s.s.s.x.$.| / N I.n.h.o.n.7.o.n.7.n.7.n.7.o.n.o.n.n.7.T g < , ; * $ & & ; $ & ; $ & & & $ $ ; 9 E |./.7.w.Y.J r k q r q r r ",
"x.b.l.j.b.x.$.| ] V m.C.d.D.C.d.C.d.D.d.C.d.D.C.d.C.d.D.I.7.U b < , ; & & & $ & & & & $ ; $ $ ; ; b '.h.o.t.w.Y.Y q r k q r r v ",
"s.l.b.b.b.x.,.4 ^ V c.T.R.T.R.R.R.T.R.R.T.R.T.R.R.T.R.m.d.n.7.E b : ' * & $ ; & * $ ; & $ & ; & ' b +.o.t.o.w.Y.J q k i k r v v ",
"s.b.l.a.b.x.$.4 / O d.G.d.C.d.d.C.d.C.d.C.d.C.d.D.C.d.D.H.n.7.2.E 7 ) * $ & $ & & $ & $ ; $ & ; { b T 7.o.o.w.Y.Y i i i r r v v ",
"s.b.b.b.b.x.$.| ( K o.o.o.o.n.o.7.o.o.n.o.7.o.n.o.7.n.o.7.o.o.t./.l , * & $ ; & $ & $ $ $ $ & , : g +.o.o.o.w.Y.J k i i i r r r ",
"s.b.b.0.b.l.$.3 ( K q.q.q.q.q.q.o.q.i.g.q.o.q.q.q.q.g.o.o.o.o.t.2.l { * $ & $ & & & $ & $ & & { 6 v 2.o.o.o.w.Y.I k i i i i q r ",
"s.b.b.b.b.x.$.3 ( O K.L.J.J.I.J.J.J.d.J.J.J.H.J.J.H.J.J.K.h.o.7.T b ; * & $ ; & & ; ' | | | | b v {.7.o.o.o.w.Y.I k i f i i i q ",
"s.b.b.a.8.Y.@.5 / V m.U.m.m.m.R.m.R.m.m.m.R.m.m.m.m.R.m.d.n.o.+.c { * & $ & $ & * { f E T E T E 2.7.o.o.o.o.u.Y.I k f f h i i i ",
"s.b.b.b.0.s...3 ^ N m.U.m.T.U.T.m.U.U.T.m.U.T.U.T.m.U.U.H.7./.g { * $ $ $ $ & $ ; 5 l +.n.7.o.h.h.o.o.o.o.o.w.Y.J i i f h f i i ",
"s.b.b.j.a.b. .3 / O K.J.J.J.J.J.J.J.J.J.J.J.J.J.J.J.J.J.K.|.g : & $ & $ ; $ $ & & { 6 l {.o.t.o.o.o.o.o.o.o.w.Y.J i i i i i i k ",
"s.0.0.a.j.b.Y _ / K o.h.h.7.7.h.7.h.7.h.7.7.7.h.7.7.h.h.+.p 6 > ; ; ; & ; ; & ; ; { ! 1 l |.7.o.o.o.o.o.n.o.q.Y.v i i i i i i m ",
"b.0.8.3.3.0.Y 4 ( L q.u.q.q.q.q.o.q.q.o.q.q.q.q.q.i.u.o.+.c 1 1 1 < 1 1 1 1 1 1 1 1 1 < c U 7.t.o.o.o.o.o.u.w.Y.I f h i i i i i ",
"b.8.3.8.8.8.$.i h +.w.w.g.w.w.w.g.w.w.w.g.w.w.g.w.w.w.w...y y y y y y y y y y y y y y y y @.w.w.w.w.w.g.w.w.r.Y.v f 9 i i i i q ",
"b.a.3.5.8.8.(.Y X Y.Y.Y.Y.Y.Y.Y.Y.Y.Y.Y.Y.Y.Y.Y.Y.Y.Y.Y.Y.Y.Y.Y.Y.Y.Y.Y.Y.A.Y.Y.A.Y.Y.Y.Y.Y.Y.Y.Y.Y.Y.Y.Y.Y.Y.(.v i f h i i k G ",
"a.8.5.[.5.8.[.}.(.:.5.[.5.8.:.5.5.:.(.(.:.(.$.).].(.}.$.].}.(.].(.}.$.}.!.}.).!.@.!.{.@...Y Y Y Y S P Y Y Y Y J r f h h i i q r ",
"b.8.3.5.5.[.:.:.:.(.(.(.(.(.$.].(.$.........S x Y Y I J x Y Y J X I J I J I H v G G v t r r q r r i k r r r r r i h a h i i k q ",
"b.a.3.(.:.[.[.[.:.(.(.(.$.$.$.@.$...:.+.Y :.S J S P I I J J I I H H r r r r r r r r q r k i k i k i i k k k k i i f h h i i i k ",
"b.j.[.[.[.(.[.[.:.(.$.(.$.$.$.@... . ... .S :.S y P I I J I I H I v r r r r r r r r r r q k i k i i k i 4 4 4 4 W h f i i i k q ",
"s.8.3.:.:.(.(.(.:.(.@.@.$.(.@.@...@. ...Y J :.v S P I J I J G v G I v r r r r r r r q q r i i i i i i i 4 @ @ @ W i i i i i q q ",
"s.8.:.(.:.(.(.$.(.(.$.@.@.@.@.@.........:.L I v L J I v v G G I J I G r r q r r r r r q k i k k i i i i 4 @ @ @ W i i i i i k r ",
"s.0.(.(.(.:.@.@.(.(.(.@.@.@.@.@...@.@.@.....v G L x x v x v r r I J v r r q r r r q r k k k k r q k k i k i i i i i i i i i i k ",
"a.8.:.(.(.(.(.@.@.(.(.$.@.@.@.@.@.@.@.@...X J I L v v v r r r r G v v q r r r r r r r k k k k r q r k k k k i i i i k i i i i i ",
"3.8.3.3.(.$.:.(.@.@.(.:.@.@.@.@.@.@.@.@.Y J I L v t r r r r r r q r k q r r r q r r r k k k k q r r k k k i i i i i k k i i i i ",
"3.3.3.3...............].].].].].{.J {.).).y y y r r r r r r r r r r q i i q i q q i i q q q q a q a a q a q a q a q a q a a q a ",
"3.3.3...^.@...^...].@.@.@.J ].].J J x x x x x H H H H r r r r r r q r i r i r q i i i i i i i i i i i a a a a a a a a a a a a ( ",
"                                                                                                                                "};

