/* XPM */
static char * stop_xpm[] = {
"32 32 3 1",
" 	c #FFFFFF",
".	c #FF0000",
"#	c none",
"###########..........###########",
"##########............##########",
"#########..............#########",
"########................########",
"#######..................#######",
"######....................######",
"#####......................#####",
"####........................####",
"###..........................###",
"##............................##",
"#..     .... ..................#",
"..       ..  ...................",
".   ...   .  ...................",
".  .....       ..    ...  .   ..",
".    .....     .      ..       .",
"..      ...  ..   ..   .   ..   ",
"....     ..  ..  ....  .  ....  ",
".......   .  ..  ....  .  ....  ",
".  .....  .  ..  ....  .  ....  ",
".   ...   .  ..   ..   .   ..   ",
"..       ..    .      ..       .",
"...     ....   ..    ...  .   ..",
"#.......................  .....#",
"##......................  ....##",
"###.....................  ...###",
"####........................####",
"#####......................#####",
"######....................######",
"#######..................#######",
"########................########",
"#########..............#########",
"##########............##########"};
