/* XPM */
static char * submit_mini_xpm[] = {
"29 29 328 2",
"  	c None",
". 	c #0B0907",
"+ 	c #17140F",
"@ 	c #515112",
"# 	c #50500E",
"$ 	c #363600",
"% 	c #776247",
"& 	c #FFD7A1",
"* 	c #77664E",
"= 	c #2F291F",
"- 	c #636331",
"; 	c #FFFFC0",
"> 	c #F3F395",
", 	c #ABAB00",
"' 	c #5F5F00",
") 	c #313100",
"! 	c #141414",
"~ 	c #363636",
"{ 	c #63452A",
"] 	c #B78D5F",
"^ 	c #E6BD88",
"/ 	c #D6B77E",
"( 	c #827E4F",
"_ 	c #F6F6F1",
": 	c #FFFFB9",
"< 	c #FFFF6B",
"[ 	c #F9F900",
"} 	c #CCCC00",
"| 	c #646400",
"1 	c #474747",
"2 	c #D7D7D7",
"3 	c #7C7C7C",
"4 	c #3C3C3C",
"5 	c #83602F",
"6 	c #938555",
"7 	c #ECECE6",
"8 	c #FFFFE7",
"9 	c #FFFFA7",
"0 	c #656500",
"a 	c #131300",
"b 	c #FEFEFE",
"c 	c #9A9A89",
"d 	c #7F7F5E",
"e 	c #E5E5DD",
"f 	c #FFFFE6",
"g 	c #FFFFBF",
"h 	c #FBFB59",
"i 	c #CDCD00",
"j 	c #8A8518",
"k 	c #8B7B4E",
"l 	c #3B3327",
"m 	c #524636",
"n 	c #77674E",
"o 	c #8D7D65",
"p 	c #CCCCBB",
"q 	c #A0A081",
"r 	c #E2E2D8",
"s 	c #FFFFE4",
"t 	c #FFFFC4",
"u 	c #FDFD58",
"v 	c #CFCF00",
"w 	c #636300",
"x 	c #624E26",
"y 	c #FFCA8D",
"z 	c #C7AB83",
"A 	c #8F7B5E",
"B 	c #DCBD91",
"C 	c #FEDBA7",
"D 	c #927E60",
"E 	c #79684F",
"F 	c #000000",
"G 	c #CFCFC0",
"H 	c #9D9D7D",
"I 	c #FFFFE3",
"J 	c #FFFFC5",
"K 	c #FFFF55",
"L 	c #D4D404",
"M 	c #6E6E0D",
"N 	c #7A7A6B",
"O 	c #635A53",
"P 	c #574129",
"Q 	c #AB8256",
"R 	c #FFCE92",
"S 	c #F1D09E",
"T 	c #7D6C52",
"U 	c #1F1F11",
"V 	c #93936F",
"W 	c #FFFF53",
"X 	c #D7D707",
"Y 	c #686803",
"Z 	c #8B8B80",
"` 	c #A0A0A4",
" .	c #939397",
"..	c #474749",
"+.	c #7F542C",
"@.	c #FFAF63",
"#.	c #FEB46B",
"$.	c #FED7A0",
"%.	c #EFCE9D",
"&.	c #66663C",
"*.	c #FEFEE6",
"=.	c #666600",
"-.	c #414100",
";.	c #4E4E19",
">.	c #44440F",
",.	c #494306",
"'.	c #BD8439",
").	c #FEA757",
"!.	c #FEAF62",
"~.	c #FEB064",
"{.	c #FEB66F",
"].	c #A7906E",
"^.	c #F6F6E1",
"/.	c #FEFEC1",
"(.	c #FEFE6A",
"_.	c #FFFF0B",
":.	c #FFFF04",
"<.	c #FCFC00",
"[.	c #F4F400",
"}.	c #F3F300",
"|.	c #F2F200",
"1.	c #8F8B03",
"2.	c #241F07",
"3.	c #C58244",
"4.	c #611F11",
"5.	c #22160D",
"6.	c #F7A356",
"7.	c #F9A75A",
"8.	c #F9B773",
"9.	c #867458",
"0.	c #515111",
"a.	c #FEFEBB",
"b.	c #FEFEA7",
"c.	c #FEFE68",
"d.	c #FEFE00",
"e.	c #FFFF00",
"f.	c #FBFB00",
"g.	c #D3D300",
"h.	c #76760E",
"i.	c #5E5E4C",
"j.	c #282828",
"k.	c #575758",
"l.	c #5F5F5F",
"m.	c #121213",
"n.	c #402C1B",
"o.	c #EAA968",
"p.	c #9D815D",
"q.	c #0E0905",
"r.	c #41410E",
"s.	c #D5D579",
"t.	c #D5D500",
"u.	c #F4F429",
"v.	c #FFFF2C",
"w.	c #FFFF2A",
"x.	c #FFFF24",
"y.	c #FAFA00",
"z.	c #D1D100",
"A.	c #7F7F15",
"B.	c #93937F",
"C.	c #BDBDBE",
"D.	c #BABABB",
"E.	c #A9A9AC",
"F.	c #B7B7B8",
"G.	c #9D9D9F",
"H.	c #525253",
"I.	c #513924",
"J.	c #DF934D",
"K.	c #774E29",
"L.	c #2B2B00",
"M.	c #424216",
"N.	c #747448",
"O.	c #717145",
"P.	c #5A5A22",
"Q.	c #676734",
"R.	c #DEDED3",
"S.	c #FFFFC9",
"T.	c #FFFFBE",
"U.	c #FFFF73",
"V.	c #848418",
"W.	c #94947E",
"X.	c #B2B2B4",
"Y.	c #B2B2B3",
"Z.	c #ACACAF",
"`.	c #B4B4B5",
" +	c #ABABAD",
".+	c #8E8E91",
"++	c #393939",
"@+	c #6F4926",
"#+	c #404040",
"$+	c #E0E0E0",
"%+	c #C6C6BA",
"&+	c #9D9D7C",
"*+	c #D8D8BA",
"=+	c #FFFFF8",
"-+	c #8D8D77",
";+	c #B9B9BA",
">+	c #B8B8B9",
",+	c #AEAEB1",
"'+	c #B1B1B3",
")+	c #A2A2A6",
"!+	c #9F9FA3",
"~+	c #3E3E3E",
"{+	c #C7C7BB",
"]+	c #9F9F7F",
"^+	c #D5D5C7",
"/+	c #FFFFEA",
"(+	c #FFFFDF",
"_+	c #FEFE62",
":+	c #B0B0B2",
"<+	c #AFAFB1",
"[+	c #A1A1A5",
"}+	c #27271D",
"|+	c #9B9B79",
"1+	c #D5D5B6",
"2+	c #FFFFEE",
"3+	c #FFFFC6",
"4+	c #FFFF5F",
"5+	c #FAFA04",
"6+	c #6D6D00",
"7+	c #4B4B11",
"8+	c #73734D",
"9+	c #8B8B75",
"0+	c #A4A4A7",
"a+	c #AAAAAC",
"b+	c #463939",
"c+	c #844926",
"d+	c #565631",
"e+	c #D9D9CD",
"f+	c #FEFEF5",
"g+	c #FFFFDE",
"h+	c #FFFF5C",
"i+	c #FFFF09",
"j+	c #FDFD00",
"k+	c #C3C300",
"l+	c #9A9A14",
"m+	c #848470",
"n+	c #B1B1B2",
"o+	c #A6A6AA",
"p+	c #403939",
"q+	c #7A4926",
"r+	c #505025",
"s+	c #E0E0C9",
"t+	c #FEFECD",
"u+	c #FFFF5D",
"v+	c #FFFF0A",
"w+	c #EFEF00",
"x+	c #949400",
"y+	c #707052",
"z+	c #A2A2A5",
"A+	c #48480F",
"B+	c #EBEBAD",
"C+	c #FEFEC5",
"D+	c #FEFE80",
"E+	c #FEFE17",
"F+	c #FFFF17",
"G+	c #FFFF08",
"H+	c #A2A200",
"I+	c #777744",
"J+	c #A8A8A6",
"K+	c #414106",
"L+	c #414103",
"M+	c #444400",
"N+	c #D0D08E",
"O+	c #FFFF27",
"P+	c #A1A102",
"Q+	c #656539",
"R+	c #9E9EA1",
"S+	c #050500",
"T+	c #41411A",
"U+	c #D6D6C1",
"V+	c #FFFFAE",
"W+	c #F3F30A",
"X+	c #A0A003",
"Y+	c #66663D",
"Z+	c #454523",
"`+	c #CDCDB2",
" @	c #F1F116",
".@	c #A1A100",
"+@	c #494912",
"@@	c #939396",
"#@	c #333300",
"$@	c #B5B58F",
"%@	c #FFFFAA",
"&@	c #EEEE1F",
"*@	c #303000",
"=@	c #2B2B07",
"-@	c #515152",
";@	c #878789",
">@	c #787834",
",@	c #DFDFB0",
"'@	c #ECEC4E",
")@	c #9E9E00",
"!@	c #0F0F0F",
"~@	c #313131",
"{@	c #59595A",
"]@	c #808082",
"^@	c #969699",
"/@	c #535332",
"(@	c #CFCFAF",
"_@	c #ECEC93",
":@	c #9D9D1E",
"<@	c #353500",
"[@	c #292929",
"}@	c #606061",
"|@	c #79797B",
"1@	c #9B9B9E",
"2@	c #87875F",
"3@	c #ECECA9",
"4@	c #9D9D1F",
"5@	c #161616",
"6@	c #212121",
"7@	c #68686A",
"8@	c #757577",
"9@	c #595933",
"0@	c #CCCC8D",
"a@	c #9E9E26",
"b@	c #151515",
"c@	c #1D1D1E",
"d@	c #6C6C6D",
"e@	c #676768",
"f@	c #5F5F1D",
"g@	c #343400",
"h@	c #101010",
"i@	c #222222",
"j@	c #020202",
"k@	c #050505",
"l@	c #0A0603",
"m@	c #0B0703",
"        . +         @ # $                                 ",
"        % & * =   - ; > , ' )                             ",
"    ! ~ { ] ^ / ( _ : < [ } |                             ",
"    1 2 3 4 5 6 7 8 9 [ } 0 a                             ",
"    1 b b c d e f g h i j k l   m n o                     ",
"    1 b p q r s t u v w x y z A B C C D E F               ",
"    1 G H r I J K L M N O P Q R C C C C S T F             ",
"    U V e s J W X Y Z `  ...+.@.#.#.$.C C %.T             ",
"    &.7 *.t K X =.-.;.;.;.>.,.'.).).!.~.{.C ].F           ",
"  - ^./.(._.:.<.[.}.}.}.}.}.|.1.2.3.4.5.6.7.8.9.          ",
"0.a.b.c.d.e.e.e.e.e.e.e.e.f.g.h.i.j.k.l.m.n.o.p.q.        ",
"r.s.t.t.t.t.t.u.v.w.x.e.y.z.A.B.C.D.E.F.G.H.I.J.K.        ",
"  L.M.N.O.P.Q.R.S.T.U.y.z.V.W.X.Y.Z.`. +X..+++@+K.        ",
"    #+$+%+&+*+=+S.: f.z.V.-+;+>+,+'+)+'+!+.+++@+K.        ",
"    ~+{+]+^+/+(+t _+g.A.W.;+:+:+<+<+[+!+!+.+++@+K.        ",
"    }+|+1+2+f 3+4+5+6+7+8+9+:+<+0+a+[+!+!+.+b+c+K.        ",
"    d+e+f+g+3+h+i+j+k+k+k+l+m+n+o+!+!+!+!+.+p+q+K.        ",
"  r+s+t+t+3+u+v+e.e.e.e.w+x+y+0+z+!+!+!+!+.+++@+K.        ",
"A+B+C+D+E+F+G+e.e.e.e.|.H+I+J+` !+!+!+!+!+.+++@+K.        ",
"  K+K+L+-.-.M+N+O+d.|.P+Q+R+` ` !+!+!+!+!+.+++@+K.        ",
"          S+T+U+V+W+X+Y+X.` ` ` !+!+!+!+!+.+++@+K.        ",
"          Z+`+9  @.@+@.+@@` ` ` !+!+!+!+!+.+++@+K.        ",
"        #@$@%@&@.@*@=@++-@;@@@` !+!+!+!+!+.+++@+K.        ",
"        >@,@'@)@#@    F !@~@{@]@^@!+!+!+!+.+++@+K.F       ",
"      /@(@_@:@<@            ! [@}@|@1@!+!+.+++@+K.F F F F ",
"      2@3@4@$                   5@6@7@8@!+.+++@+K.F F F F ",
"    9@0@a@<@                        b@c@d@e@++@+K.F F F F ",
"      f@g@                              h@i@++@+K.F F     ",
"                                          j@k@l@m@        "};
