/* XPM */
static char * open_xpm[] = {
"20 20 7 1",
" 	c None",
".	c None",
"+	c #000000",
"@	c #808080",
"#	c #F8FCF8",
"$	c #F8FC00",
"%	c #808000",
"....................",
"....................",
"............+++.....",
"...........+...+.+..",
"................++..",
"..@@@@@........+++..",
".@##$$$@@@@@@@......",
".@$#$#$$$$$$$#......",
".@#$#$#$#$#$#$......",
".@$#$#$#$#$#$#......",
".@#$#$#$#$#$#$......",
".@$#$#..............",
".@#$#@$%$%$%$%$%$+..",
".@$#@$%$%$%$%$%$+...",
".@#@$%$%$%$%$%$+....",
".%@$%$%$%$%$%$+.....",
"..++++++++++++......",
"....................",
"....................",
"...................."};
