/* XPM */
static char * users_xpm[] = {
"32 32 321 2",
"  	c None",
". 	c #777777",
"+ 	c #A2A2A2",
"@ 	c #C5C5C5",
"# 	c #ACACAC",
"$ 	c #818181",
"% 	c #5A5A5A",
"& 	c #9B9B9B",
"* 	c #BDBDBD",
"= 	c #D7D7D7",
"- 	c #EBEBEB",
"; 	c #CFCFCF",
"> 	c #A6A6A6",
", 	c #545454",
"' 	c #B4B4B4",
") 	c #F0F0F0",
"! 	c #E1E1E1",
"~ 	c #D1D1D1",
"{ 	c #B8B8B8",
"] 	c #A3A3A3",
"^ 	c #939393",
"/ 	c #7E7E7E",
"( 	c #515151",
"_ 	c #EDEDED",
": 	c #E8E8E8",
"< 	c #E4E4E4",
"[ 	c #DCDCDC",
"} 	c #C7C7C7",
"| 	c #8F8F8F",
"1 	c #828282",
"2 	c #7D7D7D",
"3 	c #6D6D6D",
"4 	c #DEDEDE",
"5 	c #CBCBCB",
"6 	c #AEAEAE",
"7 	c #858585",
"8 	c #808080",
"9 	c #567272",
"0 	c #709696",
"a 	c #87B7B7",
"b 	c #4FA1A1",
"c 	c #347878",
"d 	c #195252",
"e 	c #393939",
"f 	c #B2B2B2",
"g 	c #949494",
"h 	c #797979",
"i 	c #4E4E4E",
"j 	c #779E9E",
"k 	c #86BFBF",
"l 	c #8ED8D8",
"m 	c #90EEEE",
"n 	c #43D0D0",
"o 	c #2BA4A4",
"p 	c #147F7F",
"q 	c #005353",
"r 	c #3C3C3C",
"s 	c #696969",
"t 	c #9F9F9F",
"u 	c #9C9C9C",
"v 	c #919191",
"w 	c #838383",
"x 	c #767676",
"y 	c #5D5D5D",
"z 	c #292929",
"A 	c #85B2B2",
"B 	c #B5F5F5",
"C 	c #8EEEEE",
"D 	c #5EDEDE",
"E 	c #2ACDCD",
"F 	c #00BBBB",
"G 	c #00A4A4",
"H 	c #009393",
"I 	c #007E7E",
"J 	c #015F5F",
"K 	c #272D2D",
"L 	c #727272",
"M 	c #A1A1A1",
"N 	c #B0B0B0",
"O 	c #898989",
"P 	c #454545",
"Q 	c #4B4B4B",
"R 	c #636363",
"S 	c #787878",
"T 	c #5B5B5B",
"U 	c #404040",
"V 	c #222222",
"W 	c #0B0B0B",
"X 	c #A3DEDE",
"Y 	c #7CE6E6",
"Z 	c #6BE2E2",
"` 	c #51DADA",
" .	c #21C9C9",
"..	c #00A9A9",
"+.	c #008888",
"@.	c #008080",
"#.	c #007D7D",
"$.	c #027676",
"%.	c #3E4646",
"&.	c #B6B6B6",
"*.	c #D4D4D4",
"=.	c #C8C8C8",
"-.	c #7B7B7B",
";.	c #444444",
">.	c #1E1E1E",
",.	c #1C1C1C",
"'.	c #313131",
").	c #737373",
"!.	c #9DDBDB",
"~.	c #64DEDE",
"{.	c #4AD8D8",
"].	c #2ECACA",
"^.	c #06AEAE",
"/.	c #008181",
"(.	c #007F7F",
"_.	c #017575",
":.	c #343B3B",
"<.	c #979797",
"[.	c #CDCDCD",
"}.	c #D9D9D9",
"|.	c #C1C1C1",
"1.	c #A9A9A9",
"2.	c #888888",
"3.	c #868686",
"4.	c #8B8B8B",
"5.	c #969696",
"6.	c #AFAFAF",
"7.	c #9D9D9D",
"8.	c #747474",
"9.	c #113737",
"0.	c #71AAAA",
"a.	c #4BD2D2",
"b.	c #2DC8C8",
"c.	c #14B5B5",
"d.	c #009898",
"e.	c #007878",
"f.	c #015A5A",
"g.	c #313737",
"h.	c #909090",
"i.	c #C3C3C3",
"j.	c #CECECE",
"k.	c #D6D6D6",
"l.	c #BFBFBF",
"m.	c #ABABAB",
"n.	c #ADADAD",
"o.	c #A5A5A5",
"p.	c #555555",
"q.	c #013838",
"r.	c #086363",
"s.	c #337676",
"t.	c #29ACAC",
"u.	c #0FA3A3",
"v.	c #008383",
"w.	c #007272",
"x.	c #006161",
"y.	c #013030",
"z.	c #313434",
"A.	c #BEBEBE",
"B.	c #C2C2C2",
"C.	c #D0D0D0",
"D.	c #E0E0E0",
"E.	c #C9C9C9",
"F.	c #BCBCBC",
"G.	c #8D8D8D",
"H.	c #606060",
"I.	c #0B8383",
"J.	c #0BAEAE",
"K.	c #05B3B3",
"L.	c #019999",
"M.	c #003636",
"N.	c #004242",
"O.	c #005B5B",
"P.	c #007575",
"Q.	c #005757",
"R.	c #003838",
"S.	c #001919",
"T.	c #010F0F",
"U.	c #2D2F2F",
"V.	c #888989",
"W.	c #B7B8B8",
"X.	c #C6C6C6",
"Y.	c #CCCCCC",
"Z.	c #EEEEEE",
"`.	c #6BC0C0",
" +	c #6CE2E2",
".+	c #48D6D6",
"++	c #2CCBCB",
"@+	c #04ABAB",
"#+	c #007C7C",
"$+	c #005151",
"%+	c #002C2C",
"&+	c #002828",
"*+	c #003434",
"=+	c #004D4D",
"-+	c #006D6D",
";+	c #023939",
">+	c #325454",
",+	c #607171",
"'+	c #929292",
")+	c #C0C0C0",
"!+	c #26A5A5",
"~+	c #37D2D2",
"{+	c #46D6D6",
"]+	c #4FD9D9",
"^+	c #40D0D0",
"/+	c #2AB8B8",
"(+	c #149C9C",
"_+	c #007B7B",
":+	c #007A7A",
"<+	c #00A8A8",
"[+	c #008C8C",
"}+	c #0F7575",
"|+	c #1E5B5B",
"1+	c #3C4747",
"2+	c #959595",
"3+	c #009696",
"4+	c #11C5C5",
"5+	c #2ECECE",
"6+	c #43D5D5",
"7+	c #50DADA",
"8+	c #45D6D6",
"9+	c #38CDCD",
"0+	c #28BBBB",
"a+	c #01A9A9",
"b+	c #00AAAA",
"c+	c #00AFAF",
"d+	c #008686",
"e+	c #122727",
"f+	c #B3B3B3",
"g+	c #009595",
"h+	c #00BFBF",
"i+	c #00C0C0",
"j+	c #05C1C1",
"k+	c #2CCDCD",
"l+	c #48D7D7",
"m+	c #62E0E0",
"n+	c #73E5E5",
"o+	c #12C5C5",
"p+	c #0AC0C0",
"q+	c #04BCBC",
"r+	c #00B2B2",
"s+	c #008B8B",
"t+	c #008282",
"u+	c #123232",
"v+	c #A8A8A8",
"w+	c #7C7C7C",
"x+	c #353535",
"y+	c #00BEBE",
"z+	c #03C1C1",
"A+	c #07C2C2",
"B+	c #16C6C6",
"C+	c #63CBCB",
"D+	c #30A7A7",
"E+	c #A7A7A7",
"F+	c #9E9E9E",
"G+	c #8C8C8C",
"H+	c #6F6F6F",
"I+	c #5F5F5F",
"J+	c #00B8B8",
"K+	c #01C0C0",
"L+	c #16C7C7",
"M+	c #0FAFAF",
"N+	c #079696",
"O+	c #4C4C4C",
"P+	c #565656",
"Q+	c #525252",
"R+	c #414141",
"S+	c #484848",
"T+	c #005E5E",
"U+	c #008D8D",
"V+	c #00AEAE",
"W+	c #B7B7B7",
"X+	c #585858",
"Y+	c #505050",
"Z+	c #5C5C5C",
"`+	c #005858",
" @	c #009999",
".@	c #007777",
"+@	c #122C2C",
"@@	c #BABABA",
"#@	c #7F7F7F",
"$@	c #008787",
"%@	c #007676",
"&@	c #005656",
"*@	c #003131",
"=@	c #111616",
"-@	c #BBBBBB",
";@	c #535353",
">@	c #00BCBC",
",@	c #009B9B",
"'@	c #006868",
")@	c #005A5A",
"!@	c #001E1E",
"~@	c #AAAAAA",
"{@	c #676767",
"]@	c #00B7B7",
"^@	c #005959",
"/@	c #005454",
"(@	c #004A4A",
"_@	c #004747",
":@	c #004848",
"<@	c #757575",
"[@	c #005555",
"}@	c #004C4C",
"|@	c #005252",
"1@	c None",
"2@	c #008585",
"3@	c #00BDBD",
"4@	c #00BABA",
"5@	c #006262",
"6@	c #006666",
"7@	c #007474",
"8@	c #005C5C",
"9@	c #00B5B5",
"0@	c #00A7A7",
"a@	c #00B9B9",
"b@	c #006363",
"c@	c #006767",
"d@	c #009E9E",
"e@	c #007979",
"f@	c #004545",
"                                      . + @ # $ %               ",
"                                    & * = - ; > $ ,             ",
"                                  ' ) ) ! ~ { ] ^ / (           ",
"                                  _ : < [ } # | 1 2 3           ",
"                                  : 4 = 5 6 7 $ 8 2 3           ",
"          9 0 a b c d           e # ; } f g 8 8 8 h i           ",
"        j k l m n o p q       r s 7 t u v w 8 x 3 y z           ",
"      A B C D E F G H I J K L M N O P Q R S S T U V W           ",
"      X Y Z `  ...+.@.#.$.%.&.: *.=.# -.;.>.,.'.i ).h           ",
"      !.~.{.].^.+./.(.#._.:.<.[.}.4 ~ |.1.2.1 3.4.5.6.7.8.      ",
"    9.0.a.b.c.d.@.(.(.e.f.g.h.i.j.*.= k.; l.m.m.m.m.n.o.2.p.    ",
"  q.r.s.t.u.H v.I e.w.x.y.z.| A.l.B.C.= [ D.E.B.F.f 5.G.7 H.    ",
"I.J.K.L.M.N.O.P.P.Q.R.S.T.U.V.W.* l.l.B.X.Y.Z.Y.m.2.8 8 8 H.    ",
"`. +.+++@+#+$+%+&+*+=+-+I ;+>+,+'+F.l.)+)+)+B.m.5.8 8 8 8 H.    ",
"!+~+{+]+^+/+(+_+P.:+v.H <+[+}+|+1+&.A.)+)+)+)+1.2+8 8 8 8 H.    ",
"3+4+5+6+7+8+9+0+a+....b+c+<+d+Q.e+f+* )+)+)+)+1.2+8 8 8 x ,     ",
"g+h+i+j+k+l+m+n+o+p+q+r+3+s+t+x.u+f+* )+l.l.* v+g / w+x % x+    ",
"g+y+h+h+h+z+A+B+m C+D+v.(.(.(.x.u+f+* )+l.* E+F+G+H+I+>.        ",
"[+J+h+h+h+i+K+z+L+M+N+(.(.(.(.x.u+f+* )+l.&.O+P+Q+R+U S+        ",
"T+U+V+h+h+i+i+i+h+b+H (.(.(.(.x.u+f+* )+l.W+X+Y+Y+p.Z+,         ",
"  `+ @h+h+i+i+i+h+b+H (.I I .@`++@f * )+l.@@S I+H.8.#@X+        ",
"    $@h+h+i+i+h+y+..H #.#.%@&@*@=@6 -@l.l.-@$ 8 #@/ w+;@        ",
"    $@h+h+i+i+>@d.,@d+'@)@!@      R ^ ~@@@-@$ 8 . {@;@          ",
"    $@h+h+i+i+]@^@O./@(@_@:@              F+<@                  ",
"    $@h+h+i+i+]@[@}@=+|@&@O.              1@                    ",
"    2@3@h+i+i+4@:+5@6@7@#.8@                                    ",
"    .@9@y+h+h+4@@.(.I I #+$+                                    ",
"      O.[+0@a@4@@.(.7@b@$+                                      ",
"          [+c@d@e@f@                                            ",
"              6@8@                                              ",
"                                                                ",
"                                                                "};
